<svg xmlns="http://www.w3.org/2000/svg" width="512" height="512" xmlns:v="https://vecta.io/nano"><style><![CDATA[.B{fill:#ed6283}.C{fill:#ffbdca}.D{fill:#ffd3f2}.E{fill:#ff80b8}.F{fill:#fff}.G{opacity:.43}]]></style><path d="M176.352 315.928l-.972 1.845c-3.035 5.871-12.14 24.358-12.247 35.079-.129 12.868 7.657 20.772 14.221 20.772s18.624-12.449 24.629-24.567 27.816-37.843 27.816-37.843-4.762-32.057-19.131-35.543c-7.467-1.812-33.386 33.299-33.386 33.299z" class="C"/><path d="M175.08 376.976c-2.784 0-5.379-.725-7.499-2.123-4.599-3.03-6.797-8.811-6.531-17.181.377-11.94 9.946-64.396 47.098-83.871a3.16 3.16 0 0 1 2.933 5.597c-31.991 16.77-43.238 63.389-43.717 78.474-.191 6.027 1.051 9.964 3.693 11.705 1.458.962 3.561 1.301 5.774.93 6.879-1.155 11.843-7.806 16.338-14.519 3.505-5.235 6.654-11.512 9.7-17.584 4.823-9.614 9.379-18.695 15.441-24.442a3.159 3.159 0 1 1 4.348 4.584c-5.259 4.986-9.574 13.586-14.141 22.69-3.134 6.246-6.373 12.703-10.097 18.266-5.032 7.516-11.184 15.665-20.543 17.236-.946.16-1.882.238-2.797.238z" class="B"/><path d="M347.862 324.689c5.385-5.295 15.729-.915 21.142 4.93s7.055 19.038 14.862 21.569c5.388 1.746 11.126.575 16.721.382s12.207 1.193 14.905 5.841c2.524 4.348.471 9.493 1.357 14.274 1.522 8.214 10.934 13.251 19.366 16.657s18.02 7.404 21.104 15.323c2.101 5.394.2 11.694-4.536 15.031-7.771 5.475-20.009 2.468-28.46 7.065-6.229 3.389-9.603 10.523-16.583 12.508-7.211 2.051-15.026-2.252-21.232-6.727s-12.876-9.63-20.548-9.596c-4.001.017-7.947.642-11.632 2.083-23.442 9.163-30.843-10.824-30.257-24.625z" class="E"/><path d="M403.839 441.962c-7.304 0-14.259-4.31-19.179-7.857l-1.033-.747c-5.603-4.058-11.397-8.253-17.595-8.253h-.059c-3.202.014-6.597.628-10.684 1.932-11.621 3.711-19.333.458-23.76-2.921-6.866-5.243-11.032-14.996-10.614-24.847l6.312.267c-.332 7.852 2.861 15.529 8.137 19.557 4.699 3.59 10.754 4.238 18.004 1.924 4.717-1.506 8.714-2.215 12.579-2.232h.086c8.245 0 15.18 5.022 21.301 9.453l1.022.739c7.706 5.558 13.764 7.603 18.52 6.251 3.191-.908 5.649-3.364 8.251-5.964 2.266-2.265 4.608-4.605 7.686-6.281 4.552-2.476 9.778-2.991 14.833-3.488 5.089-.501 9.896-.974 13.317-3.384 3.551-2.503 4.986-7.258 3.41-11.302-2.647-6.797-11.904-10.535-19.342-13.54-8.244-3.329-19.421-8.922-21.291-19.01-.415-2.243-.3-4.388-.188-6.463.143-2.668.267-4.971-.795-6.802-1.966-3.387-7.519-4.429-12.063-4.269-1.336.046-2.675.15-4.094.26-4.464.349-9.078.707-13.709-.795-6.076-1.968-8.978-8.408-11.539-14.091-1.488-3.302-2.894-6.422-4.667-8.336-3.349-3.615-8.42-6.203-12.334-6.295-1.821-.047-3.224.438-4.275 1.471l-4.43-4.505c2.268-2.23 5.325-3.351 8.853-3.284 6.438.151 13.089 4.288 16.823 8.32 2.473 2.671 4.16 6.413 5.792 10.032 2.12 4.705 4.313 9.571 7.726 10.677 3.442 1.115 7.245.82 11.272.506 1.423-.111 2.894-.225 4.366-.276 3.984-.137 13.626.313 17.747 7.412 2.008 3.46 1.812 7.101 1.639 10.313-.096 1.784-.186 3.469.093 4.971 1.303 7.032 10.578 11.531 17.442 14.303 8.566 3.459 19.227 7.765 22.865 17.105 2.615 6.716.234 14.606-5.659 18.761-4.784 3.37-10.658 3.948-16.339 4.508-4.631.456-9.005.885-12.432 2.75-2.277 1.239-4.201 3.162-6.239 5.199-3.059 3.056-6.22 6.217-10.989 7.573a17.27 17.27 0 0 1-4.767.658z" class="B"/><path d="M350.211 337.409s22.882 7.328 32.908 20.034 21.182 26.771 30.539 33.139 25.17 10.953 22.891 17.243-23.012 17.505-49.833 13.096-42.605-8.088-57.61-21.253z" class="D"/><path d="M436.55 407.825s-36.507 7.858-63.478-1.199-33.904-32.563-33.904-32.563l-7.242 26.445s.96 10.516 36.567 18.054 68.057-10.737 68.057-10.737z" class="C"/><path d="M393.083 425.338c-21.626 0-44.766-6.221-61.843-17.943a3.16 3.16 0 0 1 3.576-5.21c26.195 17.982 69.278 22.183 94.081 9.174 1.055-.554 4.267-2.24 4.526-3.995.407-2.765-5.933-5.583-9.721-7.268l-.208-.093c-14.168-6.303-23.526-17.992-32.577-29.296a703.69 703.69 0 0 0-2.86-3.558c-8.675-10.709-20.642-23.334-36.318-25.935a3.16 3.16 0 0 1-2.6-3.634 3.168 3.168 0 0 1 3.634-2.6c17.773 2.95 30.816 16.615 40.193 28.191l2.883 3.587c8.578 10.714 17.448 21.792 30.212 27.471l.207.093c5.779 2.569 14.51 6.451 13.405 13.962-.644 4.376-4.529 6.932-7.842 8.67-10.785 5.659-24.435 8.384-38.748 8.384z" class="B"/><path d="M249.926 386.855s-11.142 49.561-22.228 56.588-23.373-2.375-23.101-10.58.119-47.804.119-47.804z" class="D"/><path d="M248.072 394.473c-3.621 14.179-12.012 43.67-20.374 48.97-11.086 7.028-23.373-2.375-23.101-10.58l.048-1.979 1.909-8.207c3.051 7.057 13.258 8.522 19.841 4.551s11.331-14.822 14.282-21.92c3.989-9.594 5.379-13.041 7.116-21.278l-.256 3.529c.883 2.655-.038 4.369.535 6.914z" class="C"/><path d="M217.267 450.166c-2.402 0-4.724-.534-6.75-1.62-7.245-3.885-8.111-12.597-8.806-19.597l-.253-2.438c-1.273-11.329-.437-28.027 2.182-43.576a3.155 3.155 0 0 1 3.64-2.591 3.158 3.158 0 0 1 2.591 3.64c-2.528 15.01-3.345 31.035-2.133 41.821l.261 2.519c.604 6.077 1.228 12.36 5.505 14.654 3.239 1.737 7.502.657 10.288-1.185 3.611-2.386 6.162-6.253 8.181-9.721 4.771-8.192 11.879-32.705 13.582-46.836a3.159 3.159 0 1 1 6.273.757c-1.813 15.037-9.212 40.357-14.395 49.259-2.388 4.099-5.462 8.708-10.158 11.813-3.101 2.05-6.635 3.101-10.008 3.101z" class="B"/><path d="M190.912 284.167s-33.64 84.736 36.61 116.846c39.665 18.13 121.988 9.27 115.818-58.251-1.659-18.16-11.987-53.19-26.213-71.671z" class="D"/><path d="M295.806 313.919c-10.783-10.171-28.974-12.461-42.705-14.169-21.353-2.657-48.959-.25-65.958 1.592.954-2.811 7.191-21.801 7.73-24.649l135.445-7.642c14.226 18.481 11.362 55.552 13.021 73.712 6.17 67.521-76.153 76.381-115.818 58.251-2.225-1.017-11.82-7.447-13.841-8.565 13.872 5.118 32.823 7.618 46.921 6.026 16.675-1.883 36.344-7.284 44.645-21.868 6.299-11.065 6.976-24.683 4.118-37.091-2.263-9.828-6.221-18.678-13.558-25.597z" class="C"/><path d="M271.582 413.684c-14.762 0-30.44-2.971-45.373-9.797-29.934-13.682-45.728-40.113-45.678-76.436.037-27.023 8.699-49.664 9.069-50.614a3.159 3.159 0 0 1 5.892 2.284c-.087.223-8.643 22.635-8.643 48.507.001 34.054 14.128 57.778 41.987 70.512 38.192 17.458 83.802 7.871 99.07-12.361a3.159 3.159 0 1 1 5.043 3.805c-10.797 14.307-34.571 24.1-61.367 24.1z" class="B"/><path d="M336.637 377.305s8.556 51.222.768 62.15-23.047 6.761-25.951-1.112-13.24-38.639-13.24-38.639z" class="C"/><path d="M242.515 333.471c41.336 1.397 39.44 57.489-3.112 56.05s-38.224-57.448 3.112-56.05z" opacity=".7" class="F"/><g class="B"><path d="M333.61 376.018l3.559 6.154c10.816-15.875 13.318-36.849 6.51-54.818a3.161 3.161 0 0 0-5.91 2.24c5.724 15.105 4.092 32.588-4.159 46.424z"/><path d="M324.495 450.913a13.28 13.28 0 0 1-1.384-.073c-8.322-.882-12.49-8.781-15.84-15.126l-1.178-2.209c-5.606-10.299-7.173-17.261-9.545-27.798l-.697-3.09a3.158 3.158 0 1 1 6.161-1.401l.701 3.104c2.336 10.377 3.746 16.64 8.93 26.164l1.217 2.281c2.923 5.538 5.945 11.264 10.918 11.792 3.764.404 7.41-2.282 9.35-5.117 2.507-3.664 3.435-8.319 4.011-12.388 1.36-9.602-1.36-35.567-5.195-49.612a3.158 3.158 0 1 1 6.094-1.664c4.078 14.931 6.831 41.743 5.357 52.161-.679 4.794-1.81 10.333-5.054 15.072-3.361 4.911-8.674 7.904-13.846 7.904z"/></g><path d="M313.666 398.348c5.888-.692 15.954 30.27 8.214 32.787s-16.621-31.799-8.214-32.787z" class="D"/><path d="M142.601 151.775s-5.48-22.599-18.201-25.153-7.339 15.669-7.339 15.669-18.606-27.392-33.365-25.876-6.222 18.011-6.222 18.011-16.55-18.309-26.35-11.389c-10.284 7.262 5.885 22.264 13.005 28.376 0 0-9.914-.916-11.039 6.92s14.893 11.81 25.682 12.632c0 0-7.986 7.631-2.086 12.113s29.137-.534 29.137-.534-9.576 7.556 1.617 10.617 29.747-13.809 29.747-13.809z" class="E"/><path d="M109.612 197.955c-.347 0-.681-.015-1.003-.048-4.529-.461-7.544-2.181-8.96-5.113-.734-1.52-.891-3.116-.751-4.604-6.856 1.595-17.404 3.182-22.318-.551-2.093-1.589-3.27-3.713-3.408-6.141-.123-2.191.64-4.308 1.622-6.08-7.585-1.4-16.941-4.593-21.209-9.913-1.784-2.225-2.539-4.715-2.182-7.204.346-2.403 1.576-4.411 3.558-5.807 1.543-1.085 3.43-1.704 5.353-2.031-6.535-5.48-13.626-12.989-13.667-19.786-.013-2.284.75-5.558 4.46-8.177 6.91-4.88 16.546-.704 23.637 3.864-.164-1.804.02-3.626.784-5.298 1.04-2.278 3.558-5.125 9.65-5.75 10.799-1.113 22.417 10.045 29.581 18.485.324-2.158 1.076-4.228 2.534-5.822 1.524-1.667 4.415-3.438 9.536-2.411 14.528 2.917 20.405 26.504 20.648 27.506l.164.674-5.803 29.564-1.114.728c-3.649 2.388-21.753 13.915-31.112 13.915zm1.483-19.914-4.659 7.274c-.663 1.057-1.675 3.548-1.094 4.736.384.785 1.807 1.356 3.907 1.57 5.033.497 18.687-6.901 26.903-12.15l5.018-25.563c-1.638-6.172-7.113-20.445-15.585-22.146-1.789-.359-3.007-.197-3.627.478-1.725 1.881-1.055 7.797-.06 11.203l5.623 19.23-11.268-16.563c-4.886-7.184-19.848-25.582-30.429-24.51-1.718.177-3.903.682-4.547 2.086-1.205 2.63 1.608 8.078 3.16 10.305l16.514 23.694-21.243-19.56c-4.479-4.124-18.677-14.898-24.956-10.465-1.592 1.125-1.792 2.182-1.786 2.978.028 4.594 7.593 12.876 18.825 20.609l12.805 8.815-15.23-3.117c-2.471-.499-8.362-.981-10.773.72-.558.394-.838.853-.936 1.534-.067.467-.051 1.22.857 2.352 3.377 4.21 14.259 7.695 22.303 8.308l7.066.538-5.124 4.896c-1.114 1.077-3.392 3.935-3.278 5.854.024.394.151.875.921 1.46 3.14 2.387 15.246.21 22.439-2.015z" class="B"/><path d="M147.764 155.754s-34.435-13.985-50.678-11.639c-12.622 1.823-19.233 7.534-18.738 14.032.504 6.616 11.848 17.139 26.143 20.477 16.18 3.777 42.035.946 42.035.946z" class="D"/><path d="M147.764 155.754l-8.986-3.348c-.367 1.323-4.301 14.141-20.032 18.086-16.593 4.161-36.332-5.217-36.332-5.217l-.463.112c4.521 5.411 12.85 10.975 22.539 13.237 16.18 3.778 42.035.946 42.035.946z" class="C"/><path d="m141.947 186.861-2.609-.159c-.782-.047-19.311-1.206-35.564-5-14.28-3.334-27.899-14.446-28.575-23.315-.521-6.838 4.836-15.001 21.437-17.398 16.813-2.434 49.299 9.049 50.674 9.54a3.16 3.16 0 0 1 1.915 4.037 3.166 3.166 0 0 1-4.037 1.916c-.323-.115-32.382-11.441-47.649-9.239-10.126 1.463-16.422 5.649-16.039 10.665.378 4.963 10.501 14.557 23.71 17.641 12.241 2.858 26.228 4.197 31.91 4.656l2.759-10.861a3.155 3.155 0 0 1 3.839-2.284 3.157 3.157 0 0 1 2.284 3.839z" class="B"/><path d="M85.532 125.185c-4.002 1.411 3.523 12.699 6.774 10.905s-3.731-11.978-6.774-10.905zm-27.117 4.49c-3.565 3.219 7.805 12.933 11.472 9.698s-7.662-13.138-11.472-9.698zm44.574 56.903c-3.437 2.464 4.898 7.181 7.766 4.54s-2.414-8.377-7.766-4.54z" class="F G"/><path d="M128.735 204.513s-18.943-17.536-32.275-12.087 2.833 18.997 2.833 18.997-29.1-13.568-41.819-3.104 3.905 19.004 3.905 19.004-30.073-5.641-34.888 6.776c-5.052 13.03 19.112 16.978 29.449 18.258 0 0-9.731 5.24-5.961 13.178s21.025 1.778 31.507-4.085c0 0-2.7 11.96 5.508 12.483s26.619-18.383 26.619-18.383-4.217 12.867 8.014 8.826 19.033-31.035 19.033-31.035z" class="E"/><path d="M90.248 277.884c-.178 0-.355-.005-.532-.016-2.805-.179-5.109-1.371-6.663-3.447-1.52-2.029-2.073-4.601-2.201-6.917-8.626 3.753-19.3 6.134-25.907 4.028-2.922-.932-5.077-2.709-6.232-5.14a8.98 8.98 0 0 1-.264-7.278c.83-2.13 2.4-3.992 4.181-5.554-9.489-.99-21.046-3.514-25.3-9.841-1.368-2.035-2.629-5.419-.86-9.98 3.51-9.054 15.881-10.811 25.415-10.727-1.411-1.68-2.521-3.643-2.907-5.862-.45-2.582-.065-6.533 4.324-10.686 8.183-7.744 27.306-4.076 39.498-.634-1.312-2.417-2.147-5.097-1.736-7.734.372-2.388 1.912-5.683 7.127-7.815 15.024-6.138 34.783 11.922 35.617 12.694l.508.47 12.699 30.701-.524 1.223c-1.207 2.816-12.06 27.648-21.028 32.37-4.356 2.296-8.089 2.556-11.088.781-1.707-1.012-2.85-2.522-3.614-4.092-5.149 5.512-13.739 13.456-20.513 13.456zm-1.196-21.87l-1.56 6.912c-.383 1.732-.734 5.908.623 7.712.293.389.785.845 2.003.922 4.569.272 14.314-9.046 19.809-15.767l5.464-6.683.142 8.631c.032 1.304.598 4.483 2.066 5.345 1.292.756 3.636-.264 4.917-.939 5.062-2.666 13.251-18.116 17.637-28.057l-11.142-26.934c-5.309-4.724-19.351-14.737-28.432-11.027-1.994.815-3.096 1.803-3.273 2.937-.467 2.966 3.779 8.052 6.943 10.716l14.032 11.817-17.174-6.44c-13.238-4.965-36.742-10.469-43.463-4.109-2.847 2.694-2.543 4.439-2.443 5.013.602 3.453 6.195 6.936 8.81 8.081l22.603 9.903-24.371-3.89c-6.742-1.075-26.715-2.31-29.883 5.863-.84 2.167-.327 3.367.213 4.17 3.355 4.99 17.658 7.44 30.345 7.655l15.538.264-14.407 5.824c-3.125 1.272-8.531 4.429-9.714 7.476a2.66 2.66 0 0 0 .086 2.269c.145.306.589 1.239 2.445 1.832 5.982 1.909 18.156-1.649 26.002-6.038z" class="B"/><path d="M135.953 205.023s-40.433 8.208-54.015 20.351c-10.554 9.436-13.161 18.776-8.714 24.482 4.528 5.809 21.481 8.576 36.75 2.886 17.283-6.441 39.456-24.933 39.456-24.933z" class="D"/><path d="M135.953 205.023s-4.215.858-10.366 2.421c.473 1.449 4.704 15.718-7.422 29.025-12.791 14.036-36.804 17.482-36.804 17.482l-.359.388c7.503 2.228 18.622 2.26 28.972-1.597 17.283-6.441 39.455-24.933 39.455-24.933z" class="C"/><path d="M92.593 259.003c-9.959 0-18.471-2.857-21.86-7.205-4.585-5.882-4.601-16.53 9.1-28.78 14.005-12.52 51.006-21.821 52.574-22.211a3.159 3.159 0 1 1 1.524 6.132c-.368.092-37.047 9.311-49.887 20.79-8.613 7.702-11.882 15.624-8.327 20.184 3.46 4.439 18.907 7.179 33.155 1.869 13.302-4.957 27.305-12.471 32.672-15.45l-4.215-12.015a3.16 3.16 0 0 1 5.963-2.092l5.956 16.981-2.262 1.311c-.751.435-18.574 10.726-35.908 17.186-6.159 2.295-12.576 3.3-18.485 3.3z" class="B"/><path d="M35.195 236.582c-2.465 4.728 17.273 6.349 18.679 1.106s-17.046-4.239-18.679-1.106zm24.991-22.728c-.96 5.671 13.719 8.378 17.168 2.73s-16.317-7.75-17.168-2.73zm364.026-75.25c4.132.9-1.65 8.534-5.33 7.246s-1.105-8.647 5.33-7.246z" class="F G"/><path d="M388.831 168.2c-17.573-70.791-101.415-95.989-164.875-82.872s-130.442 69.489-118.51 141.446 101.732 76.179 160.961 63.937 139.997-51.72 122.424-122.511z" class="D"/><path d="M114.139 232.486C102.3 160.51 171.762 103.625 237.31 90.076c39.182-8.099 85.777-2.522 120.704 18.381-35.594-25.554-86.859-32.885-129.394-24.094-65.548 13.548-135.011 70.433-123.171 142.41 4.081 24.813 17.763 41.503 36.445 52.206-14.181-10.641-24.338-25.714-27.755-46.493z" class="F G"/><path d="M389.161 168.131c-9.318-38.807-29.487-47.017-32.998-53.811 23.132 102.643-37.195 140.908-93.715 158.972-35.983 11.5-83.864 18.148-120.825 6.123 34.587 20.241 86.275 19.255 124.95 11.261 59.297-12.256 139.617-51.619 122.588-122.545z" class="C"/><path d="M215.105 296.928c-29.366 0-59.236-5.477-80.928-20.361-17.795-12.21-28.659-29.515-32.294-51.438-5.592-33.732 5.72-67.64 31.852-95.478 23.061-24.565 55.608-42.648 89.3-49.611s70.744-3.265 101.651 10.143c35.027 15.196 58.856 41.842 67.095 75.027 5.355 21.566 2.241 41.763-9.256 60.025-22.646 35.978-74.647 57.876-115.759 66.374-15.672 3.24-33.573 5.319-51.661 5.319zm42.277-214.023c-11.211 0-22.346 1.106-33.068 3.322-64.658 13.365-127.469 69.877-116.196 137.87 3.341 20.16 13.312 36.061 29.634 47.261 33.418 22.929 87.894 22.299 127.734 14.065s90.102-29.255 111.692-63.553c10.545-16.752 13.395-35.303 8.471-55.137-13.855-55.798-71.877-83.828-128.267-83.828z" class="B"/><g fill="#ffa4cd"><ellipse cx="138.69" cy="236.457" rx="15.553" ry="13.653" transform="rotate(345.47 138.525 236.222)"/><ellipse cx="315.226" cy="189.233" rx="21.128" ry="15.092" transform="rotate(334.33 315.353 189.305)"/></g><path d="M382.183 184.809s13.871-15.154 24.803-11.71-.997 15.253-.997 15.253 26.071-13.27 36.847-5.808-2.86 16.589-2.86 16.589 20.609-7.117 25.245 2.415c4.864 10.002-14.041 14.722-22.156 16.418 0 0 8.063 3.515 5.594 10.059s-16.558 2.793-25.257-1.167c0 0 2.928 9.308-3.547 10.263s-22.321-12.829-22.321-12.829 4.191 9.928-5.776 7.527-17.137-23.362-17.137-23.362z" class="E"/><path d="M416.958 241.136c-5.254 0-11.957-5.035-16.347-8.924-.546 1.101-1.331 2.144-2.454 2.942-2.459 1.745-5.645 1.804-9.471.178-7.468-3.175-17.241-21.033-19.124-24.582l-.624-1.175 8.177-25.577.468-.511c1.559-1.703 15.6-16.53 28.083-12.59 4.563 1.438 6.108 4.161 6.599 6.192.407 1.681.223 3.408-.286 5.06 9.207-3.414 22.598-6.781 30.386-1.39 4.591 3.18 5.349 6.591 5.176 8.893-.109 1.443-.607 2.782-1.33 4 7.396-.415 16.333.648 19.581 7.327 1.824 3.753.983 6.731-.043 8.57-2.891 5.177-11.212 8-18.511 9.516 1.145.999 2.142 2.159 2.789 3.484.986 2.018 1.087 4.197.293 6.301-.82 2.175-2.536 3.855-4.961 4.855-5.521 2.278-13.946.881-20.421-1.203-.052 1.709-.407 3.534-1.382 5.089-1.199 1.915-3.105 3.114-5.511 3.469a7.59 7.59 0 0 1-1.087.076zm-21.919-23.427 5.897 6.086c5.474 5.665 13.31 11.421 16.19 11.012.791-.117.977-.411 1.077-.569.755-1.197.395-4.066-.085-5.63l-2.066-6.716 6.392 2.901c6.416 2.922 16.184 4.851 20.508 3.069 1.173-.484 1.381-1.037 1.46-1.244.18-.478.164-.842-.059-1.298-.993-2.033-5.245-4.158-7.807-4.955l-14.839-4.614 15.462-1.547c11.689-1.169 21.173-4.351 23.066-7.74.318-.569.551-1.338-.123-2.725-2.649-5.448-16.877-3.93-23.353-2.339l-28.456 6.986 26.31-12.891c2.577-1.273 6.47-4.166 6.628-6.323.087-1.187-1.297-2.407-2.472-3.22-6.706-4.647-24.179 1.231-33.617 6.026l-18.012 9.152 14.358-14.213c2.245-2.236 5.105-6.382 4.627-8.345-.199-.813-1.39-1.346-2.356-1.651-7.056-2.231-17.17 6.287-21.063 10.339l-6.934 21.691c4.351 7.956 11.589 18.95 15.387 20.564 1.851.787 2.936.769 3.336.488.76-.534 1.083-2.599 1.015-3.822z" class="B"/><path d="M376.491 185.688s32.608 3.85 44.178 12.587c8.991 6.789 11.674 14.026 8.521 18.844-3.209 4.905-16.472 8.215-28.957 4.707-14.131-3.971-28.677-12.152-28.677-12.152z" class="D"/><path d="M376.491 185.688l8.381 1.238c-.28 1.18-2.697 12.776 7.796 22.532 11.068 10.291 30.339 11.444 30.339 11.444l.31.284c-5.804 2.261-14.621 3.018-23.083.64-14.131-3.971-33.203-15.023-33.203-15.023z" class="C"/><path d="M411.115 226.445c-3.89 0-7.915-.505-11.734-1.579-14.216-3.994-32.7-12.593-33.481-12.957a3.16 3.16 0 0 1 2.673-5.726c.187.087 18.803 8.747 32.517 12.601 11.984 3.367 23.456-.335 25.458-3.395 2.283-3.489-.843-9.355-7.781-14.592-10.822-8.172-44.354-13.732-44.691-13.786a3.16 3.16 0 0 1 1.02-6.236c1.441.236 35.423 5.878 47.479 14.979 12.027 9.082 12.67 17.885 9.262 23.095-3.132 4.784-11.547 7.596-20.722 7.596z" class="B"/><path d="M365.532 133.83s19.857 12.102 30.656 4.912-5.892-16.269-5.892-16.269 32.527 6.208 41.889-5.302-8.339-17.134-8.339-17.134 24.649 1.24 26.684-10.583c2.135-12.407-19.906-11.579-29.263-10.865 0 0 7.657-6.363 2.911-12.7s-18.882 2.183-27.091 9.231c0 0 .25-11.043-7.092-10.039s-20.223 20.983-20.223 20.983 1.427-12.114-8.652-6.362-11.266 30.8-11.266 30.8z" class="E"/><path d="M385.009 143.987c-11.161 0-23.179-7.222-23.843-7.627l-.591-.36-16.806-25.008.273-1.303c.924-4.426 5.887-26.796 12.898-32.515 3.529-2.877 6.875-3.794 9.952-2.72 1.594.555 2.833 1.574 3.787 2.724 3.721-5.976 10.055-14.559 16.169-15.395 2.601-.354 4.938.312 6.752 1.931 1.637 1.461 2.595 3.499 3.153 5.447 6.352-4.375 15.217-8.74 22.005-7.991 2.835.311 5.131 1.538 6.638 3.549 1.455 1.944 2.005 4.233 1.591 6.622-.323 1.859-1.22 3.63-2.349 5.222 8.498-.749 18.82-.454 23.657 4.324 1.625 1.605 3.4 4.458 2.63 8.935-1.436 8.336-11.201 12.2-19.446 13.986 1.393 1.159 2.551 2.576 3.193 4.299.876 2.346 1.109 6.14-2.756 10.891-6.835 8.401-22.949 8.749-33.986 7.85 1.296 1.755 2.229 3.75 2.325 5.907.101 2.256-.691 5.554-5.036 8.448-3.032 2.018-6.576 2.784-10.21 2.784zm-19.974-12.677c5.525 3.203 19.49 9.426 26.681 4.634 1.518-1.01 2.267-1.987 2.228-2.903-.111-2.549-4.769-6.258-7.882-7.961l-17.58-9.62 19.684 3.742c8.538 1.625 32.156 4.036 38.848-4.192 1.091-1.341 2.279-3.245 1.738-4.693-1.01-2.706-6.957-4.598-9.516-5.047l-28.878-5.057 29.295-1.211c6.082-.252 23.739-2.675 25.044-10.251.33-1.921-.278-2.809-.843-3.368-3.267-3.228-14.474-3.732-27.884-1.258l-15.284 2.821 12.969-8.565c2.1-1.395 6.606-5.22 7.106-8.127.116-.673-.01-1.195-.424-1.746-.283-.378-.826-.899-2.268-1.057-5.388-.594-15.523 4.643-21.644 9.9l-5.377 4.617.16-7.086c.026-1.549-.385-5.18-1.822-6.457-.294-.261-.73-.51-1.684-.381-3.901.533-10.923 10.634-14.44 17.294l-4.031 7.632-1.849-8.43c-.279-1.217-1.325-3.692-2.576-4.122-.823-.284-2.237.318-3.873 1.653-3.919 3.197-8.331 18.094-10.428 27.614z" class="B"/><path d="M359.067 134.668s34.236-14.465 44.061-27.611c7.635-10.215 8.27-18.928 3.324-23.172-5.035-4.321-20.498-3.738-32.964 4.011-14.111 8.772-32.931 23.6-32.931 23.6z" class="D"/><path d="M359.067 134.668l8.721-3.988c-.676-1.195-6.96-13.039 1.372-26.953 8.789-14.677 29.376-22.006 29.376-22.006l.248-.406c-7.023-.628-16.846 1.328-25.297 6.581-14.111 8.772-26.495 21.638-26.495 21.638z" class="C"/><path d="M361.733 138.346a3.158 3.158 0 0 1-1.357-6.014c.309-.147 30.98-14.801 40.222-27.166 6.124-8.196 7.616-15.607 3.797-18.884-3.776-3.24-17.719-2.866-29.238 4.297-13.711 8.524-27.688 20.857-27.827 20.98a3.16 3.16 0 0 1-4.19-4.73c.586-.518 14.506-12.803 28.681-21.616 12.452-7.74 29.941-9.518 36.689-3.725 5.206 4.466 7.19 14.027-2.85 27.461-10.177 13.616-41.257 28.466-42.575 29.091a3.141 3.141 0 0 1-1.352.306z" class="B"/><path d="M424.684 112.27c1.831-3.828-11.471-6.487-12.501-2.92s11.109 5.83 12.501 2.92zm7.739-24.417c.244-4.797-14.665-3.624-14.969 1.257s14.708 3.869 14.969-1.257z" class="F G"/><path d="M380.145 171.629s16.908 19.505 30.757 15.55-.734-19.193-.734-19.193 27.438 16.674 41.227 7.666-1.8-19.318-1.8-19.318 29.274 8.902 35.42-2.913c6.449-12.398-17.137-18.969-27.272-21.375 0 0 10.247-4.142 7.368-12.445s-20.704-4.071-31.765.609c0 0 3.994-11.592-4.108-13.012s-28.473 15.356-28.473 15.356 5.602-12.328-6.999-9.651-22.318 28.763-22.318 28.763z" class="E"/><path d="M404.247 189.764c-14.253 0-28.641-16.389-29.31-17.162l-.455-.523-9.259-31.906.655-1.158c1.51-2.667 15.016-26.16 24.448-29.873 4.583-1.803 8.319-1.656 11.106.439 1.587 1.193 2.557 2.819 3.144 4.465 5.871-5.047 15.627-12.234 22.387-11.056 2.77.485 4.929 1.923 6.247 4.157 1.288 2.184 1.557 4.801 1.43 7.117 8.985-2.788 19.859-3.982 26.192-1.167 2.803 1.246 4.75 3.249 5.633 5.792.85 2.454.665 4.966-.535 7.264-1.058 2.025-2.824 3.705-4.764 5.062 9.324 2.025 20.535 5.799 24.069 12.553 1.137 2.173 2.02 5.675-.239 10.015-4.481 8.616-17.002 8.994-26.437 7.878 1.218 1.824 2.106 3.897 2.248 6.146.165 2.615-.651 6.499-5.468 10.148-8.984 6.803-27.589 1.06-39.33-3.697 1.041 2.546 1.577 5.303.879 7.878-.632 2.334-2.523 5.439-7.941 6.986a17.127 17.127 0 0 1-4.7.642zm-24.087-20.795c4.759 5.277 17.629 16.774 27.053 14.075 2.073-.591 3.276-1.454 3.577-2.563.781-2.884-2.956-8.511-5.726-11.407l-12.774-13.347 16.484 8.344c12.613 6.385 35.373 14.432 42.751 8.846 3.124-2.366 3.013-4.133 2.977-4.714-.22-3.499-5.398-7.573-7.872-8.998l-21.38-12.319 23.796 6.535c6.587 1.809 26.301 5.222 30.346-2.555 1.073-2.062.694-3.311.246-4.168-2.788-5.326-16.738-9.329-29.325-10.933l-15.417-1.964 14.961-4.21c3.246-.923 8.965-3.468 10.475-6.367a2.66 2.66 0 0 0 .163-2.265c-.111-.32-.449-1.296-2.229-2.088-5.741-2.553-18.229-.351-26.508 3.153l-6.526 2.762 2.309-6.701c.569-1.679 1.377-5.791.225-7.733-.249-.42-.688-.927-1.891-1.137-4.448-.777-15.402 7.598-21.415 13.501l-6.163 6.051.804-8.6c.111-1.301-.104-4.522-1.47-5.54-1.198-.893-3.641-.137-4.989.395-5.329 2.097-15.16 16.556-20.604 25.956z" class="B"/><path d="M373.026 170.331s41.089-3.729 55.919-14.311c11.524-8.223 15.139-17.221 11.343-23.38-3.865-6.27-20.412-10.878-36.212-6.895-17.885 4.509-35.307 12.748-35.307 12.748z" class="D"/><path d="M373.026 170.331s4.284-.391 10.569-1.271c-.311-1.492-2.954-16.139 10.557-28.037 14.251-12.55 38.497-13.345 38.497-13.345l.399-.346c-7.214-3.037-18.262-4.287-28.973-1.587-17.885 4.509-40.851 13.513-40.851 13.513z" class="C"/><path d="M369.748 173.786a3.159 3.159 0 0 1-.282-6.305c.435-.04 43.681-4.07 57.644-14.033 9.406-6.711 13.523-14.227 10.489-19.15-2.953-4.79-18.008-9.207-32.75-5.489-17.54 4.421-41.304 12.705-41.542 12.789a3.158 3.158 0 1 1-2.083-5.965c.241-.084 24.265-8.46 42.081-12.951 17.117-4.314 35.064.824 39.674 8.3 3.913 6.348 2.763 16.936-12.198 27.61-15.35 10.953-58.895 15.014-60.741 15.181-.1.009-.196.013-.292.013z" class="B"/><path d="M476.635 150c2.968-4.429-16.474-8.203-18.445-3.145s16.479 6.08 18.445 3.145zm-41.986 40.441c.219 4.48-8.438 6.744-9.793 2.264s9.659-5.018 9.793-2.264z" class="F G"/><path d="M358.993 307.917l.856 1.902c2.665 6.048 10.606 25.064 10.048 35.771-.669 12.851-8.93 20.257-15.482 19.85s-17.816-13.58-23.058-26.047-25.416-39.495-25.416-39.495 11.414-24.451 25.971-27.04c7.565-1.345 26.585 28.057 26.585 28.057z" class="C"/><path d="M330.094 264.041a5.413 5.413 0 0 1-1.253.963l-3.74 1.916c.098.952.613 1.85 1.494 2.383 30.89 18.722 39.224 65.949 38.765 81.035-.183 6.027-1.667 9.879-4.412 11.453-1.515.871-3.635 1.078-5.819.571-6.793-1.579-11.335-8.526-15.406-15.505-3.173-5.441-5.927-11.902-8.59-18.15-4.219-9.896-8.203-19.242-13.897-25.355a3.158 3.158 0 1 0-4.623 4.307c4.941 5.303 8.714 14.154 12.708 23.525 2.74 6.427 5.573 13.072 8.944 18.855 4.557 7.813 10.193 16.328 19.434 18.476 1.269.295 2.528.441 3.752.441 2.418 0 4.698-.57 6.642-1.685 4.778-2.739 7.329-8.372 7.585-16.743.362-11.913-5.911-64.66-41.584-86.487z" class="B"/><path d="M337.498 303.155c9.503-3.146 25.803 41.44 17.492 46.035s-27.276-42.796-17.492-46.035z" class="D"/><path fill="#8d1d43" d="M202.52 241.901a3.159 3.159 0 0 1-3.122-2.703c-1.903-13.036 5.816-26.728 17.954-31.847 12.292-5.181 30.012-.665 37.923 9.669a3.157 3.157 0 0 1-5.016 3.84c-6.108-7.978-20.908-11.714-30.451-7.687-9.415 3.97-15.633 15.001-14.157 25.111a3.16 3.16 0 0 1-3.131 3.617zm-45.231-37.765c-9.349 0-18.362-6.97-20.23-16.267a3.16 3.16 0 0 1 6.195-1.245c1.408 7.009 9.114 12.255 16.14 11.009 7.041-1.246 12.465-8.817 11.381-15.882a3.158 3.158 0 0 1 2.643-3.602c1.719-.276 3.337.918 3.602 2.643 1.603 10.444-6.118 21.221-16.523 23.063a18.203 18.203 0 0 1-3.208.281zm104.121-25.694c-2.01 0-4.039-.291-6.007-.893-6.287-1.919-11.754-6.899-14.625-13.32a3.157 3.157 0 0 1 1.594-4.173 3.155 3.155 0 0 1 4.173 1.594c2.137 4.778 6.138 8.463 10.703 9.856 4.704 1.435 10.073.269 13.354-2.903 3.912-3.783 5.023-9.737 5.981-16.559a3.15 3.15 0 0 1 3.568-2.689 3.159 3.159 0 0 1 2.689 3.568c-.866 6.171-2.053 14.621-7.845 20.222-3.553 3.435-8.508 5.297-13.585 5.297z"/></svg>