<svg xmlns="http://www.w3.org/2000/svg" viewBox="215.9 184.89 914.96 253.87">
  <path d="M3092.76 1066.15C3092.85 1065.76 3092.98 1065.37 3093.03 1064.97C3094.95 1050.13 3072.78 1005.44 3064.99 992.85Q3059.94 984.778 3054.23 977.159Q3048.52 969.539 3042.19 962.425C3011.15 927.078 2973.8 903.483 2927.93 892.454C2921.23 890.841 2885.86 886.422 2882.41 883.414C2878.94 880.392 2880.74 844.091 2881.16 837.506C2886.36 754.66 2922.87 682.269 2985.36 627.833C3040.52 579.79 3112.74 558.875 3185.24 564.315Q3188.75 564.582 3192.25 564.937Q3195.76 565.291 3199.25 565.732Q3202.74 566.174 3206.22 566.702Q3209.7 567.23 3213.17 567.844Q3216.64 568.459 3220.09 569.159Q3223.54 569.859 3226.97 570.645Q3230.4 571.431 3233.81 572.302Q3237.22 573.173 3240.61 574.129Q3244 575.084 3247.36 576.124Q3250.73 577.163 3254.07 578.286Q3257.4 579.408 3260.71 580.614Q3264.02 581.819 3267.3 583.106Q3270.57 584.393 3273.82 585.761Q3277.06 587.13 3280.27 588.578Q3283.48 590.026 3286.65 591.554Q3289.82 593.082 3292.96 594.688Q3296.09 596.294 3299.18 597.977Q3302.27 599.661 3305.32 601.421Q3308.37 603.18 3311.38 605.015Q3314.38 606.85 3317.34 608.76Q3320.3 610.669 3323.21 612.651Q3326.12 614.633 3328.98 616.687Q3331.84 618.74 3334.64 620.865Q3337.45 622.989 3340.21 625.182Q3342.96 627.376 3345.66 629.637Q3348.36 631.898 3351 634.225Q3353.64 636.553 3356.22 638.945Q3358.81 641.338 3361.33 643.794Q3363.85 646.25 3366.31 648.767Q3368.77 651.285 3371.17 653.863Q3373.57 656.442 3375.9 659.079Q3378.23 661.716 3380.5 664.41Q3382.66 666.916 3384.76 669.473Q3386.85 672.03 3388.89 674.638Q3390.92 677.245 3392.89 679.902Q3394.86 682.558 3396.77 685.261Q3398.67 687.965 3400.51 690.714Q3402.35 693.463 3404.12 696.256Q3405.89 699.048 3407.6 701.884Q3409.3 704.719 3410.93 707.594Q3412.57 710.47 3414.13 713.385Q3415.69 716.299 3417.18 719.251Q3418.68 722.202 3420.09 725.19Q3421.51 728.177 3422.86 731.197Q3424.21 734.218 3425.48 737.271Q3426.75 740.323 3427.95 743.406Q3429.15 746.488 3430.27 749.599Q3431.39 752.71 3432.44 755.847Q3433.49 758.985 3434.46 762.146Q3435.43 765.308 3436.32 768.493Q3437.21 771.677 3438.03 774.882Q3438.84 778.087 3439.58 781.311Q3440.32 784.535 3440.98 787.776Q3441.64 791.017 3442.22 794.274Q3442.79 797.53 3443.29 800.799Q3443.79 804.068 3444.22 807.348Q3444.64 810.629 3444.98 813.918Q3445.32 817.208 3445.58 820.505Q3445.84 823.802 3446.02 827.104Q3446.2 830.407 3446.3 833.712Q3446.4 837.018 3446.42 840.325Q3446.44 843.632 3446.38 846.939Q3446.31 850.246 3446.17 853.55Q3446.03 856.854 3445.81 860.154Q3445.57 863.723 3445.24 867.286Q3444.91 870.848 3444.49 874.401Q3444.06 877.954 3443.56 881.495Q3443.05 885.037 3442.45 888.564Q3441.85 892.092 3441.17 895.604Q3440.48 899.115 3439.71 902.609Q3438.94 906.102 3438.08 909.575Q3437.22 913.048 3436.28 916.499Q3435.33 919.949 3434.3 923.375Q3433.27 926.801 3432.15 930.2Q3431.04 933.599 3429.84 936.969Q3428.63 940.339 3427.35 943.678Q3426.07 947.018 3424.7 950.324Q3423.33 953.63 3421.88 956.901Q3420.43 960.171 3418.9 963.405Q3417.37 966.639 3415.76 969.833Q3414.15 973.028 3412.46 976.181Q3410.77 979.334 3409 982.444Q3407.23 985.554 3405.39 988.619Q3403.54 991.685 3401.62 994.703Q3399.7 997.721 3397.7 1000.69Q3395.71 1003.66 3393.64 1006.58Q3391.57 1009.5 3389.42 1012.36Q3387.28 1015.23 3385.07 1018.04Q3382.86 1020.85 3380.58 1023.61Q3378.29 1026.36 3375.94 1029.06Q3373.59 1031.76 3371.18 1034.39Q3368.76 1037.03 3366.28 1039.61Q3363.8 1042.19 3361.25 1044.7Q3358.71 1047.21 3356.1 1049.66Q3353.49 1052.11 3350.82 1054.5Q3348.16 1056.88 3345.43 1059.2C3297.15 1100.35 3238.7 1124.81 3175.14 1126.99C3157.31 1127.6 3139.44 1126.06 3121.66 1124.91C3117.54 1122.78 3105.71 1122.36 3100.05 1120.88C3101.24 1117.38 3100.85 1113.85 3100.7 1110.22C3100.37 1101.94 3098.3 1071.25 3092.76 1066.15Z" style="fill: rgb(58, 141, 255);" transform="matrix(0.328125 0 0 0.328125 -0.00012207 -0.00012207)"/>
  <path d="M 1066.74 235.232 C 1078.1 234.69 1087.16 237.186 1095.67 241.55 C 1106.68 247.139 1115.74 255.358 1116.89 264.241 C 1117.33 267.799 1116.68 271.905 1112.55 274.648 C 1107.95 277.655 1101.63 277.951 1095.33 278.019 C 1085.41 277.672 1076.62 276.339 1068.17 273.015 C 1057.82 268.944 1050.08 262.137 1047.54 254.779 C 1045.92 250.097 1046.21 244.847 1050.78 240.791 C 1054.95 237.113 1060 236.073 1066.74 235.232 Z" style="fill: rgb(231, 231, 239); transform-box: fill-box; transform-origin: 50% 50%;" transform="matrix(-0.788011, -0.615661, 0.615661, -0.788011, -0.000046, 0.000019)"/>
  <g>
    <path d="M 218.302 245.978 C 219.203 245.618 220.057 245.364 221.028 245.281 C 225.018 244.939 252.153 244.717 254.8 245.795 C 255.174 245.948 255.505 246.133 255.855 246.335 C 255.583 252.508 255.13 314.453 255.4 315.177 C 255.468 315.359 255.616 315.501 255.724 315.663 C 256.557 315.8 256.985 315.764 257.687 315.233 C 258.798 314.394 259.807 313.169 260.784 312.166 C 273.497 301.764 285.931 298.719 302.12 300.334 C 319.376 302.055 334.195 310.618 345.027 324.072 C 352.308 333.122 357.226 344.758 358.755 356.271 C 359.858 361.781 360.058 369.915 359.074 375.49 C 358.434 379.388 357.886 383.26 356.787 387.063 C 356.655 387.507 356.52 387.949 356.38 388.388 C 356.24 388.83 356.094 389.27 355.943 389.707 C 355.795 390.145 355.64 390.581 355.481 391.017 C 355.323 391.452 355.16 391.885 354.992 392.316 C 354.826 392.747 354.654 393.177 354.477 393.606 C 354.302 394.032 354.121 394.458 353.935 394.882 C 353.749 395.306 353.56 395.728 353.368 396.148 C 353.173 396.568 352.975 396.986 352.774 397.402 C 352.57 397.818 352.363 398.232 352.153 398.646 C 351.941 399.057 351.726 399.466 351.507 399.873 C 351.288 400.28 351.065 400.685 350.838 401.09 C 350.608 401.493 350.376 401.893 350.142 402.291 C 349.906 402.689 349.665 403.084 349.42 403.476 C 349.177 403.869 348.929 404.26 348.675 404.647 C 348.424 405.036 348.168 405.422 347.908 405.805 C 347.647 406.188 347.384 406.568 347.117 406.944 C 346.848 407.32 346.575 407.694 346.3 408.066 C 346.024 408.438 345.745 408.806 345.463 409.172 C 345.179 409.539 344.891 409.902 344.6 410.261 C 344.309 410.622 344.015 410.98 343.717 411.334 C 343.42 411.686 343.118 412.036 342.812 412.384 C 342.508 412.732 342.199 413.076 341.886 413.418 C 341.574 413.759 341.258 414.097 340.938 414.432 C 340.619 414.766 340.296 415.098 339.97 415.426 C 339.644 415.754 339.314 416.079 338.979 416.4 C 338.647 416.722 338.311 417.04 337.972 417.355 C 337.633 417.67 337.291 417.981 336.945 418.287 C 336.599 418.593 336.25 418.897 335.898 419.199 C 335.546 419.499 335.191 419.795 334.832 420.088 C 334.473 420.382 334.112 420.67 333.749 420.955 C 333.384 421.241 333.016 421.523 332.646 421.801 C 332.277 422.079 331.904 422.353 331.528 422.622 C 331.118 422.919 330.705 423.211 330.287 423.498 C 329.872 423.784 329.452 424.065 329.027 424.341 C 328.603 424.619 328.176 424.89 327.746 425.155 C 327.315 425.422 326.881 425.682 326.445 425.936 C 326.008 426.192 325.568 426.442 325.125 426.687 C 324.682 426.93 324.236 427.168 323.786 427.402 C 323.338 427.634 322.886 427.862 322.431 428.085 C 321.976 428.306 321.519 428.522 321.059 428.735 C 320.599 428.945 320.136 429.149 319.671 429.348 C 319.207 429.547 318.739 429.741 318.269 429.929 C 317.799 430.117 317.327 430.299 316.853 430.474 C 316.379 430.651 315.902 430.821 315.424 430.986 C 314.945 431.15 314.465 431.308 313.982 431.461 C 313.5 431.612 313.015 431.758 312.529 431.898 C 312.043 432.04 311.556 432.174 311.066 432.301 C 310.577 432.43 310.086 432.553 309.593 432.669 C 309.101 432.785 308.607 432.895 308.112 433 C 307.617 433.103 307.121 433.2 306.623 433.292 C 306.126 433.384 305.627 433.469 305.127 433.548 C 304.628 433.629 304.127 433.702 303.625 433.768 C 303.124 433.836 302.622 433.897 302.119 433.952 C 301.616 434.006 301.112 434.055 300.608 434.096 C 300.104 434.138 299.599 434.174 299.094 434.204 C 298.589 434.233 298.084 434.256 297.578 434.273 C 297.072 434.291 296.566 434.302 296.061 434.306 C 295.555 434.311 295.049 434.309 294.543 434.303 C 294.037 434.294 293.531 434.28 293.026 434.26 C 292.52 434.238 292.015 434.211 291.51 434.178 C 291.005 434.145 290.501 434.107 289.997 434.063 C 289.493 434.017 288.99 433.965 288.487 433.906 C 287.985 433.849 287.483 433.786 286.982 433.716 C 286.481 433.646 285.981 433.569 285.481 433.486 C 276.942 432.039 269.432 428.584 262.693 423.17 C 261.051 421.851 258.395 419.002 256.453 418.399 C 254.218 421.542 259.068 430.444 253.12 431.297 C 249.769 431.78 246.033 431.458 242.629 431.468 C 234.992 431.481 227.339 431.366 219.707 431.616 C 219.077 431.245 218.59 430.907 218.075 430.388 C 217.685 426.516 217.966 422.471 217.975 418.573 L 218.013 396.014 L 218.009 326.634 L 217.944 272.905 L 218.024 256.55 C 218.045 253.053 217.877 249.451 218.302 245.978 Z M 255.988 358.178 C 255.873 358.62 255.768 359.064 255.671 359.51 C 255.575 359.956 255.488 360.405 255.41 360.855 C 255.332 361.306 255.263 361.758 255.203 362.211 C 255.144 362.663 255.093 363.117 255.052 363.572 C 255.011 364.027 254.979 364.482 254.957 364.937 C 254.934 365.394 254.921 365.852 254.917 366.309 C 254.913 366.764 254.918 367.22 254.933 367.677 C 254.948 368.134 254.972 368.59 255.005 369.045 C 255.039 369.5 255.081 369.955 255.133 370.41 C 255.185 370.863 255.246 371.315 255.316 371.766 C 255.387 372.218 255.466 372.668 255.555 373.114 C 255.644 373.563 255.741 374.009 255.848 374.453 C 255.955 374.897 256.071 375.339 256.196 375.778 C 256.321 376.218 256.455 376.655 256.598 377.088 C 256.74 377.523 256.892 377.954 257.052 378.381 C 257.212 378.809 257.381 379.234 257.559 379.654 C 257.751 380.106 257.952 380.556 258.163 381.002 C 258.374 381.446 258.595 381.886 258.826 382.321 C 259.057 382.757 259.297 383.186 259.546 383.611 C 259.796 384.035 260.055 384.454 260.323 384.868 C 260.591 385.281 260.868 385.688 261.154 386.088 C 261.439 386.488 261.734 386.883 262.037 387.273 C 262.34 387.66 262.652 388.041 262.972 388.415 C 263.292 388.789 263.62 389.156 263.956 389.517 C 264.292 389.878 264.636 390.23 264.988 390.574 C 265.34 390.919 265.699 391.256 266.065 391.584 C 266.432 391.912 266.805 392.233 267.186 392.546 C 267.566 392.858 267.954 393.163 268.348 393.458 C 268.742 393.753 269.142 394.04 269.548 394.318 C 269.955 394.595 270.368 394.864 270.786 395.125 C 271.204 395.385 271.628 395.636 272.058 395.876 C 272.487 396.117 272.922 396.349 273.361 396.572 C 273.801 396.793 274.245 397.005 274.694 397.208 C 275.143 397.41 275.596 397.602 276.053 397.786 C 276.511 397.967 276.972 398.139 277.437 398.301 C 277.902 398.463 278.371 398.615 278.842 398.757 C 279.314 398.899 279.788 399.031 280.266 399.151 C 280.743 399.271 281.223 399.382 281.705 399.482 C 282.188 399.581 282.672 399.669 283.158 399.748 C 283.644 399.827 284.132 399.895 284.621 399.951 C 285.11 400.008 285.601 400.054 286.092 400.089 C 286.583 400.124 287.075 400.148 287.567 400.161 C 288.059 400.177 288.551 400.18 289.044 400.171 C 289.536 400.163 290.028 400.144 290.52 400.116 C 291.011 400.085 291.502 400.044 291.992 399.994 C 292.482 399.942 292.97 399.879 293.457 399.807 C 293.944 399.735 294.43 399.652 294.913 399.558 C 295.396 399.464 295.877 399.359 296.356 399.243 C 296.835 399.127 297.311 399.001 297.784 398.865 C 298.258 398.73 298.728 398.583 299.194 398.426 C 299.661 398.268 300.124 398.101 300.584 397.924 C 301.043 397.746 301.499 397.559 301.95 397.363 C 302.401 397.166 302.848 396.959 303.29 396.742 C 303.732 396.526 304.169 396.299 304.601 396.063 C 305.033 395.827 305.46 395.581 305.882 395.325 C 306.303 395.071 306.718 394.808 307.128 394.534 C 307.538 394.261 307.941 393.978 308.339 393.688 C 308.736 393.397 309.127 393.097 309.511 392.788 C 309.895 392.48 310.272 392.163 310.642 391.837 C 311.013 391.513 311.375 391.181 311.731 390.839 C 312.087 390.498 312.434 390.15 312.775 389.796 C 313.115 389.439 313.447 389.076 313.772 388.707 C 314.096 388.335 314.412 387.956 314.719 387.571 C 315.027 387.188 315.326 386.798 315.617 386.4 C 315.907 386.002 316.189 385.597 316.461 385.186 C 316.734 384.777 316.997 384.361 317.252 383.939 C 317.506 383.517 317.751 383.09 317.987 382.659 C 318.222 382.226 318.448 381.789 318.665 381.347 C 318.881 380.905 319.088 380.458 319.284 380.005 C 319.481 379.554 319.668 379.099 319.844 378.64 C 320.021 378.178 320.187 377.714 320.343 377.248 C 320.5 376.78 320.646 376.31 320.781 375.838 C 320.917 375.365 321.042 374.889 321.156 374.41 C 321.271 373.931 321.375 373.45 321.469 372.966 C 321.562 372.483 321.645 371.997 321.717 371.51 C 321.789 371.022 321.85 370.533 321.901 370.043 C 321.951 369.553 321.991 369.063 322.02 368.573 C 322.049 368.081 322.067 367.588 322.075 367.096 C 322.082 366.604 322.079 366.112 322.064 365.62 C 322.05 365.128 322.025 364.635 321.989 364.143 C 321.953 363.651 321.906 363.161 321.849 362.673 C 321.791 362.183 321.723 361.695 321.644 361.21 C 321.565 360.724 321.476 360.24 321.375 359.756 C 321.275 359.275 321.164 358.796 321.043 358.319 C 320.922 357.842 320.79 357.367 320.648 356.895 C 320.505 356.425 320.353 355.956 320.19 355.491 C 320.027 355.027 319.854 354.566 319.671 354.109 C 319.488 353.652 319.295 353.199 319.092 352.751 C 318.889 352.3 318.676 351.856 318.453 351.418 C 318.231 350.979 317.999 350.545 317.757 350.116 C 317.515 349.685 317.264 349.261 317.004 348.843 C 316.744 348.425 316.475 348.014 316.196 347.609 C 315.918 347.202 315.631 346.802 315.335 346.408 C 315.038 346.014 314.734 345.627 314.421 345.246 C 314.108 344.866 313.786 344.493 313.457 344.128 C 313.128 343.762 312.79 343.403 312.445 343.051 C 312.1 342.701 311.747 342.358 311.387 342.021 C 311.026 341.686 310.659 341.359 310.284 341.04 C 309.909 340.721 309.528 340.409 309.139 340.105 C 308.751 339.803 308.356 339.509 307.954 339.222 C 307.553 338.938 307.146 338.662 306.732 338.395 C 306.318 338.126 305.899 337.868 305.474 337.621 C 305.049 337.371 304.619 337.132 304.184 336.902 C 303.748 336.673 303.308 336.452 302.863 336.239 C 302.418 336.029 301.968 335.829 301.514 335.639 C 301.06 335.446 300.602 335.265 300.14 335.094 C 299.679 334.924 299.213 334.764 298.744 334.615 C 298.275 334.464 297.803 334.324 297.328 334.195 C 296.853 334.064 296.375 333.945 295.895 333.838 C 295.414 333.728 294.932 333.63 294.447 333.542 C 293.962 333.455 293.476 333.378 292.988 333.313 C 292.5 333.247 292.011 333.192 291.52 333.148 C 291.03 333.105 290.539 333.071 290.047 333.047 C 289.555 333.025 289.062 333.013 288.57 333.011 C 288.077 333.011 287.585 333.021 287.093 333.04 C 286.601 333.062 286.11 333.094 285.619 333.135 C 285.128 333.177 284.639 333.231 284.151 333.296 C 283.662 333.36 283.176 333.434 282.69 333.519 C 282.205 333.605 281.723 333.7 281.242 333.805 C 280.761 333.912 280.283 334.029 279.807 334.156 C 279.331 334.283 278.858 334.421 278.389 334.569 C 277.919 334.718 277.453 334.877 276.99 335.045 C 276.528 335.213 276.069 335.393 275.614 335.583 C 275.159 335.771 274.709 335.969 274.263 336.177 C 273.817 336.387 273.376 336.606 272.939 336.833 C 272.503 337.061 272.072 337.298 271.646 337.545 C 271.22 337.793 270.799 338.05 270.384 338.316 C 269.97 338.581 269.561 338.856 269.159 339.14 C 268.756 339.422 268.36 339.714 267.97 340.016 C 267.58 340.318 267.197 340.628 266.821 340.945 C 266.445 341.262 266.076 341.588 265.714 341.923 C 265.352 342.257 264.998 342.6 264.651 342.95 C 264.305 343.3 263.966 343.656 263.635 344.019 C 263.304 344.385 262.981 344.756 262.666 345.135 C 262.351 345.513 262.045 345.899 261.747 346.293 C 261.45 346.685 261.161 347.083 260.881 347.488 C 260.6 347.892 260.329 348.303 260.067 348.721 C 259.805 349.137 259.552 349.559 259.309 349.988 C 259.065 350.417 258.831 350.85 258.607 351.287 C 258.382 351.727 258.168 352.17 257.963 352.616 C 257.758 353.065 257.563 353.517 257.378 353.975 C 257.192 354.43 257.018 354.889 256.853 355.353 C 256.688 355.819 256.533 356.287 256.389 356.757 C 256.245 357.227 256.111 357.701 255.988 358.178 Z" style="fill: rgb(58, 141, 255);"/>
  </g>
  <path fill-opacity="0.011764706" transform="matrix(0.328125 0 0 0.328125 -0.00012207 -0.00012207)" d="M780.153 1091.59C780.558 1099.06 780.614 1106.67 781.418 1114.11C782.33 1122.52 784.005 1130.9 784.547 1139.35C784.778 1142.95 783.651 1154.65 784.942 1157.04Q784.13 1155.12 783.397 1153.16Q782.664 1151.21 782.012 1149.22Q781.359 1147.24 780.788 1145.23Q780.217 1143.22 779.729 1141.19Q779.24 1139.16 778.835 1137.11Q778.429 1135.07 778.108 1133Q777.786 1130.94 777.549 1128.87Q777.312 1126.79 777.159 1124.71Q777.007 1122.63 776.94 1120.54Q776.872 1118.45 776.89 1116.37Q776.908 1114.28 777.011 1112.19Q777.114 1110.11 777.302 1108.03Q777.49 1105.95 777.762 1103.88Q778.035 1101.81 778.392 1099.75Q778.749 1097.69 779.189 1095.65Q779.63 1093.61 780.153 1091.59Z" fill="#FEFEFE"/>
  <path d="M1696.86 1276.22C1696.07 1287.71 1698.15 1300.84 1695.56 1311.96C1693.45 1314.24 1689.58 1314.25 1686.68 1314.55C1666.89 1316.66 1645.73 1315.23 1625.79 1315.27C1613.91 1315.3 1600.46 1316.66 1588.8 1315.19C1586.23 1314.86 1584.62 1313.93 1582.63 1312.33C1578.21 1304.05 1582.94 1036.91 1582.94 1001.01L1581.42 751.474C1583.86 748.651 1588.61 748.459 1592.08 748.161C1604.6 747.088 1617.73 748.267 1630.33 748.165C1649.15 748.014 1669.62 746.146 1688.29 748.172C1690.84 748.449 1692.09 749.217 1694 750.848Q1694 856.421 1695.94 961.975C1700.26 958.743 1704.61 955.549 1708.8 952.151C1736.68 925.241 1779.62 913.783 1817.53 914.318Q1819.86 914.362 1822.19 914.463Q1824.52 914.564 1826.84 914.723Q1829.17 914.881 1831.49 915.096Q1833.81 915.311 1836.12 915.583Q1838.44 915.855 1840.75 916.184Q1843.05 916.513 1845.35 916.898Q1847.65 917.283 1849.94 917.725Q1852.23 918.166 1854.5 918.664Q1856.78 919.161 1859.05 919.714Q1861.31 920.268 1863.56 920.876Q1865.81 921.485 1868.04 922.148Q1870.28 922.812 1872.49 923.53Q1874.71 924.248 1876.91 925.021Q1879.11 925.793 1881.29 926.619Q1883.47 927.445 1885.63 928.324Q1887.79 929.204 1889.92 930.135Q1892.06 931.068 1894.17 932.052Q1896.28 933.036 1898.37 934.071Q1900.46 935.107 1902.52 936.193Q1904.58 937.28 1906.62 938.416Q1908.65 939.553 1910.66 940.739Q1912.67 941.926 1914.64 943.161Q1916.62 944.396 1918.56 945.679Q1920.51 946.962 1922.42 948.293Q1924.34 949.624 1926.22 951.001Q1928.1 952.378 1929.94 953.801Q1931.79 955.223 1933.6 956.691Q1935.41 958.159 1937.18 959.67Q1938.96 961.182 1940.69 962.737Q1942.43 964.291 1944.13 965.888Q1945.83 967.485 1947.48 969.123Q1949.14 970.761 1950.76 972.439C1991.36 1014.48 2009.83 1066.83 2008.61 1124.87C2007.5 1177.86 1981.35 1234.53 1943.37 1271.2C1912.32 1301.17 1869.21 1321.59 1825.71 1323.28Q1821.35 1323.69 1816.97 1323.84Q1812.59 1324 1808.21 1323.9Q1803.82 1323.8 1799.46 1323.46Q1795.09 1323.11 1790.75 1322.52Q1786.4 1321.92 1782.1 1321.08Q1777.8 1320.23 1773.56 1319.14Q1769.31 1318.06 1765.14 1316.73Q1760.96 1315.4 1756.87 1313.83C1734.11 1308.98 1715.87 1288.06 1696.86 1276.22ZM1700.43 1076.32Q1699.89 1077.54 1699.38 1078.78Q1698.87 1080.02 1698.4 1081.27Q1697.92 1082.52 1697.48 1083.78Q1697.04 1085.04 1696.63 1086.31Q1696.22 1087.59 1695.84 1088.87Q1695.47 1090.15 1695.13 1091.45Q1694.79 1092.74 1694.48 1094.04Q1694.17 1095.34 1693.9 1096.65Q1693.63 1097.96 1693.39 1099.28Q1693.15 1100.6 1692.95 1101.92Q1692.75 1103.24 1692.58 1104.57Q1692.42 1105.89 1692.28 1107.22Q1692.15 1108.55 1692.05 1109.89Q1691.96 1111.22 1691.9 1112.56Q1691.83 1113.89 1691.81 1115.23Q1691.78 1116.57 1691.79 1117.91Q1691.8 1119.24 1691.84 1120.58Q1691.89 1121.92 1691.97 1123.25Q1692.05 1124.59 1692.16 1125.92Q1692.28 1127.25 1692.43 1128.58Q1692.58 1129.91 1692.76 1131.23Q1692.95 1132.56 1693.17 1133.88Q1693.39 1135.2 1693.64 1136.51Q1693.9 1137.82 1694.19 1139.13Q1694.48 1140.43 1694.8 1141.73Q1695.13 1143.03 1695.48 1144.32Q1695.84 1145.6 1696.23 1146.88Q1696.63 1148.16 1697.05 1149.43Q1697.48 1150.7 1697.94 1151.95Q1698.4 1153.21 1698.89 1154.45Q1699.38 1155.69 1699.91 1156.92Q1700.43 1158.15 1700.99 1159.37Q1701.89 1161.32 1702.86 1163.23Q1703.84 1165.15 1704.9 1167.02Q1705.95 1168.89 1707.09 1170.71Q1708.23 1172.53 1709.44 1174.3Q1710.65 1176.08 1711.94 1177.8Q1713.22 1179.52 1714.58 1181.18Q1715.94 1182.84 1717.37 1184.45Q1718.8 1186.05 1720.29 1187.59Q1721.79 1189.14 1723.34 1190.61Q1724.9 1192.09 1726.52 1193.5Q1728.14 1194.91 1729.82 1196.25Q1731.5 1197.59 1733.23 1198.86Q1734.97 1200.13 1736.75 1201.32Q1738.54 1202.51 1740.38 1203.63Q1742.21 1204.74 1744.09 1205.78Q1745.97 1206.82 1747.9 1207.77Q1749.82 1208.73 1751.78 1209.6Q1753.74 1210.47 1755.74 1211.26Q1757.74 1212.05 1759.77 1212.76Q1761.8 1213.46 1763.85 1214.08Q1765.91 1214.69 1767.99 1215.22Q1770.07 1215.75 1772.18 1216.19Q1774.28 1216.63 1776.4 1216.98Q1778.52 1217.33 1780.65 1217.59Q1782.78 1217.85 1784.92 1218.02Q1787.06 1218.19 1789.21 1218.27Q1791.35 1218.35 1793.5 1218.34Q1795.65 1218.33 1797.79 1218.22Q1799.94 1218.12 1802.08 1217.92Q1804.22 1217.73 1806.35 1217.44Q1808.47 1217.16 1810.59 1216.78Q1812.7 1216.41 1814.8 1215.94Q1816.9 1215.47 1818.97 1214.92Q1821.05 1214.37 1823.1 1213.73Q1825.15 1213.08 1827.17 1212.36Q1829.19 1211.63 1831.18 1210.82Q1833.16 1210 1835.11 1209.11Q1837.07 1208.21 1838.98 1207.23Q1840.89 1206.25 1842.76 1205.19Q1844.63 1204.13 1846.45 1203Q1848.27 1201.86 1850.04 1200.65Q1851.81 1199.43 1853.53 1198.14Q1855.25 1196.86 1856.91 1195.5Q1858.58 1194.14 1860.18 1192.71Q1861.78 1191.28 1863.32 1189.78Q1864.86 1188.29 1866.34 1186.73Q1867.82 1185.17 1869.23 1183.55Q1870.63 1181.93 1871.97 1180.25Q1873.31 1178.57 1874.58 1176.83Q1875.84 1175.1 1877.03 1173.31Q1878.23 1171.52 1879.34 1169.69Q1880.45 1167.85 1881.49 1165.97Q1882.52 1164.09 1883.48 1162.16Q1884.43 1160.24 1885.31 1158.28Q1886.18 1156.31 1886.96 1154.32Q1887.75 1152.32 1888.45 1150.29Q1889.16 1148.26 1889.77 1146.2Q1890.39 1144.14 1890.92 1142.06Q1891.44 1139.98 1891.88 1137.88Q1892.32 1135.77 1892.67 1133.66Q1893.02 1131.54 1893.28 1129.4Q1893.54 1127.27 1893.7 1125.13Q1893.87 1122.99 1893.95 1120.84Q1894.02 1118.7 1894.01 1116.55Q1894 1114.4 1893.89 1112.26Q1893.78 1110.11 1893.59 1107.97Q1893.39 1105.83 1893.1 1103.71Q1892.82 1101.58 1892.44 1099.46Q1892.06 1097.35 1891.6 1095.25Q1891.13 1093.16 1890.57 1091.08Q1890.02 1089.01 1889.38 1086.96Q1888.73 1084.91 1888 1082.89Q1887.27 1080.87 1886.46 1078.88Q1885.64 1076.89 1884.75 1074.94Q1883.85 1072.99 1882.87 1071.08Q1881.89 1069.17 1880.83 1067.3Q1879.77 1065.43 1878.63 1063.61Q1877.49 1061.79 1876.27 1060.02Q1875.06 1058.25 1873.77 1056.53Q1872.48 1054.81 1871.12 1053.15Q1869.76 1051.49 1868.33 1049.89Q1866.9 1048.29 1865.4 1046.75Q1863.9 1045.21 1862.34 1043.73Q1860.78 1042.26 1859.16 1040.85Q1857.54 1039.44 1855.86 1038.11Q1854.18 1036.77 1852.44 1035.5Q1850.7 1034.24 1848.92 1033.05Q1847.13 1031.86 1845.29 1030.75Q1843.45 1029.63 1841.57 1028.6Q1839.69 1027.57 1837.76 1026.61Q1835.84 1025.66 1833.88 1024.79Q1831.91 1023.92 1829.91 1023.13Q1827.91 1022.35 1825.88 1021.65Q1823.85 1020.95 1821.8 1020.33Q1819.74 1019.72 1817.66 1019.19Q1815.57 1018.67 1813.47 1018.23Q1811.37 1017.79 1809.25 1017.45Q1807.13 1017.1 1805 1016.84Q1802.86 1016.58 1800.72 1016.42Q1798.58 1016.25 1796.44 1016.18Q1794.29 1016.1 1792.14 1016.12Q1789.99 1016.13 1787.85 1016.24Q1785.7 1016.35 1783.57 1016.55Q1781.43 1016.74 1779.3 1017.03Q1777.17 1017.32 1775.06 1017.7Q1772.94 1018.08 1770.85 1018.55Q1768.75 1019.02 1766.68 1019.57Q1764.6 1020.13 1762.55 1020.78Q1760.5 1021.42 1758.49 1022.15Q1756.47 1022.88 1754.48 1023.7Q1752.49 1024.51 1750.54 1025.41Q1748.59 1026.31 1746.68 1027.29Q1744.77 1028.28 1742.91 1029.34Q1741.04 1030.4 1739.22 1031.54Q1737.4 1032.68 1735.63 1033.9Q1733.86 1035.11 1732.14 1036.4Q1730.43 1037.69 1728.76 1039.06Q1727.1 1040.42 1725.5 1041.85Q1723.9 1043.28 1722.36 1044.78Q1720.82 1046.28 1719.35 1047.84Q1717.88 1049.4 1716.47 1051.03Q1715.06 1052.65 1713.73 1054.33Q1712.39 1056.01 1711.13 1057.75Q1709.87 1059.49 1708.68 1061.27Q1707.49 1063.06 1706.38 1064.9Q1705.27 1066.74 1704.23 1068.62Q1703.2 1070.51 1702.25 1072.43Q1701.3 1074.36 1700.43 1076.32Z" style="fill: rgb(58, 141, 255);" transform="matrix(0.328125 0 0 0.328125 -0.00012207 -0.00012207)"/>
  <path fill-opacity="0.011764706" transform="matrix(0.328125 0 0 0.328125 -0.00012207 -0.00012207)" d="M1700.43 1076.32C1701.23 1089.36 1699.55 1102.2 1699.49 1115.22C1699.44 1125.28 1700.54 1135.4 1700.96 1145.46C1701.15 1149.95 1700.41 1155 1700.99 1159.37Q1700.43 1158.15 1699.91 1156.92Q1699.38 1155.69 1698.89 1154.45Q1698.4 1153.21 1697.94 1151.95Q1697.48 1150.7 1697.05 1149.43Q1696.63 1148.16 1696.23 1146.88Q1695.84 1145.6 1695.48 1144.32Q1695.13 1143.03 1694.8 1141.73Q1694.48 1140.43 1694.19 1139.13Q1693.9 1137.82 1693.64 1136.51Q1693.39 1135.19 1693.17 1133.88Q1692.95 1132.56 1692.76 1131.23Q1692.58 1129.91 1692.43 1128.58Q1692.28 1127.25 1692.16 1125.92Q1692.05 1124.59 1691.97 1123.25Q1691.89 1121.92 1691.84 1120.58Q1691.8 1119.24 1691.79 1117.91Q1691.78 1116.57 1691.81 1115.23Q1691.83 1113.89 1691.9 1112.56Q1691.96 1111.22 1692.05 1109.89Q1692.15 1108.55 1692.28 1107.22Q1692.42 1105.89 1692.58 1104.57Q1692.75 1103.24 1692.95 1101.92Q1693.15 1100.6 1693.39 1099.28Q1693.63 1097.96 1693.9 1096.65Q1694.17 1095.34 1694.48 1094.04Q1694.79 1092.74 1695.13 1091.45Q1695.47 1090.15 1695.84 1088.87Q1696.22 1087.59 1696.63 1086.31Q1697.04 1085.04 1697.48 1083.78Q1697.92 1082.52 1698.4 1081.27Q1698.87 1080.02 1699.38 1078.78Q1699.89 1077.54 1700.43 1076.32Z" fill="#FEFEFE"/>
  <path fill-opacity="0.011764706" transform="matrix(0.328125 0 0 0.328125 -0.00012207 -0.00012207)" d="M2163.61 1157.03C2164.15 1154.08 2158.3 1127.34 2158.26 1119.49C2158.21 1109.86 2164 1085.39 2163.51 1081.82C2164.72 1083.79 2165.18 1085 2165.4 1087.35C2166.4 1097.61 2164.52 1108.29 2164.55 1118.6C2164.59 1129.67 2167.21 1142.6 2165.2 1153.48C2164.95 1154.85 2164.32 1155.85 2163.61 1157.03Z" fill="#FEFEFE"/>
  <g>
    <path d="M 935.173 433.443 C 932.928 433.253 930.69 432.81 928.505 432.278 C 927.991 432.156 927.478 432.027 926.966 431.891 C 926.454 431.756 925.945 431.613 925.437 431.465 C 924.93 431.316 924.424 431.162 923.921 431.002 C 923.416 430.84 922.914 430.672 922.415 430.497 C 921.914 430.324 921.416 430.144 920.922 429.958 C 920.428 429.773 919.934 429.58 919.442 429.381 C 918.952 429.184 918.464 428.98 917.979 428.767 C 917.495 428.557 917.013 428.341 916.532 428.118 C 916.053 427.895 915.576 427.666 915.101 427.432 C 914.626 427.198 914.155 426.957 913.687 426.71 C 913.219 426.465 912.754 426.213 912.292 425.955 C 911.831 425.697 911.373 425.433 910.918 425.161 C 910.463 424.892 910.011 424.618 909.562 424.338 C 909.114 424.056 908.669 423.769 908.227 423.478 C 907.787 423.185 907.35 422.887 906.914 422.586 C 906.481 422.281 906.051 421.973 905.625 421.66 C 905.201 421.347 904.779 421.028 904.362 420.702 C 903.944 420.378 903.529 420.049 903.118 419.714 C 902.709 419.38 902.303 419.041 901.901 418.697 C 901.5 418.352 901.104 418.002 900.713 417.647 C 900.319 417.293 899.931 416.933 899.548 416.568 C 899.165 416.205 898.786 415.836 898.409 415.462 C 898.035 415.088 897.667 414.709 897.304 414.327 C 896.938 413.942 896.578 413.553 896.224 413.162 C 895.868 412.77 895.516 412.374 895.171 411.974 C 894.827 411.571 894.487 411.166 894.15 410.757 C 893.816 410.348 893.486 409.934 893.163 409.516 C 892.839 409.098 892.52 408.677 892.205 408.253 C 891.89 407.826 891.581 407.397 891.279 406.963 C 890.975 406.53 890.677 406.093 890.383 405.651 C 890.093 405.211 889.806 404.767 889.524 404.319 C 889.242 403.87 888.966 403.419 888.697 402.964 C 879.26 387.237 876.966 367.372 881.436 349.647 C 885.524 333.424 896.437 317.28 910.918 308.65 C 925.161 300.16 945.456 298.2 961.38 302.322 C 975.988 306.103 990.773 318.086 998.291 331.075 C 1005.13 342.884 1007.91 356.258 1007.05 369.754 C 1006.93 371.72 1007.11 374.076 1006.52 375.956 C 1006.11 377.242 1005.17 377.449 1004.08 377.98 C 996.145 378.269 988.122 378.069 980.181 378.059 L 937.21 377.974 C 929.46 377.961 921.673 377.806 913.93 378.148 C 913.989 378.21 914.045 378.276 914.104 378.335 C 915.538 379.837 916.056 381.865 916.85 383.745 C 919.862 390.872 923.537 397.274 930.598 400.982 C 942.562 407.269 956.822 405.628 968.218 398.983 C 971.112 397.294 974.347 394.098 977.547 393.215 C 978.603 392.923 979.502 393.327 980.414 393.842 C 984.316 396.043 987.823 399.876 991.377 402.668 C 993.763 404.542 996.456 406.12 998.658 408.22 C 999.236 408.768 999.626 409.251 999.833 410.038 C 999.771 410.858 999.39 411.492 998.891 412.125 C 992.929 419.718 977.176 430.152 967.509 431.504 C 960.471 435.143 943.074 434.529 935.173 433.443 Z M 951.024 352.898 C 955.483 352.918 968.028 353.594 971.621 352.665 C 972.021 351.848 971.932 351.438 971.667 350.569 C 969.645 343.937 963.946 336.617 957.725 333.549 C 951.579 330.523 944.59 330.192 937.88 330.914 C 929.791 333.483 923.239 336.699 919.19 344.554 C 918.018 346.831 917.418 349.276 916.361 351.589 L 916.46 352.426 C 918.353 353.551 946.519 352.905 951.024 352.898 Z" style="fill: rgb(58, 141, 255);"/>
  </g>
  <g>
    <path d="M 403.38 301.851 C 406.189 301.913 409.142 301.583 411.708 302.876 C 411.557 319.006 411.558 335.135 411.711 351.264 C 411.754 360.065 411.239 369.275 412.033 378.01 C 412.289 380.812 412.821 384.175 414.225 386.63 C 414.238 386.646 414.258 386.662 414.268 386.685 C 416.558 391.571 419.465 395.22 424.449 397.553 C 431.287 400.749 438.552 400.558 445.558 397.989 C 454.417 394.738 457.787 390.718 461.636 382.371 C 464.851 372.74 463.539 353.318 463.453 342.523 L 463.109 302.43 C 468.346 301.551 495.734 301.359 500.341 302.715 C 499.866 308.694 499.99 314.757 499.974 320.752 L 499.934 347.806 L 500.108 431.12 C 493.716 431.655 487.062 431.317 480.641 431.323 C 475.115 431.327 468.992 431.839 463.555 430.966 C 462.39 428.882 462.965 421.828 462.968 419.203 C 459.66 421.198 456.868 423.882 453.761 426.162 C 443.12 433.958 427.836 435.924 415.075 433.847 C 403.295 431.931 391.407 426.343 384.375 416.384 C 379.411 409.352 376.405 401.356 374.893 392.916 C 373.15 383.174 373.577 372.635 373.633 362.736 L 373.783 332.587 L 373.879 314.241 C 373.898 310.399 373.669 306.331 374.328 302.543 C 377.173 301.161 398.642 301.974 403.38 301.851 Z" style="fill: rgb(58, 141, 255);"/>
  </g>
  <path transform="matrix(0.328125 0 0 0.328125 -0.00012207 -0.00012207)" d="M2519.72 751.836C2522.95 750.149 2526.04 748.615 2529.68 748.111C2543.97 746.135 2621.53 745.404 2632.39 749.528C2633.67 750.014 2633.45 750.102 2634.66 751.292C2633.46 797.911 2634.52 844.622 2634.49 891.253L2633.58 1104.95C2633.54 1121.29 2635.44 1215.93 2632.03 1223.82C2635.4 1232.37 2634.28 1295.97 2635.04 1310.81C2633.66 1313.02 2633.21 1312.97 2630.74 1313.94C2615.41 1316.3 2595.97 1314.53 2580.26 1314.55C2561.23 1314.58 2540.47 1316.41 2521.63 1314C2519.71 1298.66 2521.04 1281.71 2521.02 1266.19L2520.9 1170.03L2520.09 870.087L2520.55 790.59C2520.6 778.469 2522.33 763.514 2519.72 751.836Z" style="fill: rgb(58, 141, 255);"/>
  <path fill-opacity="0.015686275" transform="matrix(0.328125 0 0 0.328125 -0.00012207 -0.00012207)" d="M2521.63 1314C2519.2 1314.34 2518.67 1314.54 2516.45 1313.57C2514.79 1310.3 2514.83 1305.8 2514.77 1302.17C2514.31 1275.51 2515.14 1248.68 2515.01 1222L2514.5 924.314C2514.49 903.454 2512.45 764.873 2515.99 754.492C2516.5 752.991 2518.39 752.547 2519.72 751.836C2522.33 763.514 2520.6 778.469 2520.55 790.59L2520.09 870.087L2520.9 1170.03L2521.02 1266.19C2521.04 1281.71 2519.71 1298.66 2521.63 1314Z" fill="#FEFEFE"/>
  <g style="" transform="matrix(201.720856, 0, 0, 0.697813, -43335.836583, 136.914171)">
    <path fill-opacity="0.019607844" d="M 219.707 431.616 C 219.058 431.632 218.189 431.714 217.558 431.56 C 216.677 431.346 216.536 431.225 216.114 430.5 C 216.54 386.658 216.632 342.815 216.391 298.97 L 216.133 262.789 C 216.124 258.005 215.389 251.159 216.583 246.714 C 217.276 246.003 217.301 246.066 218.302 245.978 C 217.877 249.451 218.045 253.053 218.024 256.55 L 217.944 272.905 L 218.009 326.634 L 218.013 396.014 L 217.975 418.573 C 217.966 422.471 217.685 426.516 218.075 430.388 C 218.59 430.907 219.077 431.245 219.707 431.616 Z" style="fill: rgb(163, 80, 80);"/>
  </g>
  <path fill-opacity="0.015686275" transform="matrix(0.328125 0 0 0.328125 -0.00012207 -0.00012207)" d="M2049.96 1315.15C2048.42 1315.48 2047.65 1315.44 2046.04 1315.15C2043.99 1314.78 2044.32 1314.57 2043.19 1313.01C2044 1271.87 2042.52 1230.39 2042.51 1189.19Q2041.24 1033.29 2044.42 877.413C2044.9 851.173 2044.51 824.865 2044.49 798.619C2044.47 785.837 2043.74 772.513 2044.86 759.791C2045.14 756.723 2045.57 754.273 2047.61 751.857C2048.95 771.479 2048.12 791.564 2048.11 811.236L2047.97 918.696Q2047.38 1069.31 2048.31 1219.91C2048.34 1234.04 2046.32 1309.04 2049.96 1315.15Z" fill="#FEFEFE"/>
  <path fill-opacity="0.011764706" transform="matrix(0.328125 0 0 0.328125 -0.00012207 -0.00012207)" d="M1229.35 919.927C1232.98 917.162 1247.69 918.021 1252.35 918.73C1255.61 919.226 1258.53 919.836 1260.8 922.369C1261.72 944.454 1259.87 966.497 1260.14 988.534L1261.31 1116.84C1261.54 1137.28 1262.93 1157.87 1262.4 1178.3C1258.12 1170.82 1256.5 1160.57 1255.72 1152.03C1253.3 1125.41 1254.87 1097.34 1254.74 1070.52Q1254.04 996.784 1254.73 923.052C1246.91 919.109 1237.91 920.115 1229.35 919.927Z" fill="#FEFEFE"/>
  <path fill-opacity="0.011764706" transform="matrix(0.328125 0 0 0.328125 -0.00012207 -0.00012207)" d="M779.75 750.736L784.424 751.825C787.819 757.952 784.118 844.902 784.121 860.108C784.126 887.278 785.681 914.415 785.156 941.626C785.121 943.443 784.207 951.044 786.152 951.738C788.629 952.623 792.093 951.359 794.771 951.363C791.794 954.419 788.718 958.154 785.333 960.711C783.192 962.328 781.888 962.438 779.35 962.02C779.021 961.526 778.569 961.095 778.362 960.539C777.539 958.334 778.92 769.549 779.75 750.736Z" fill="#FEFEFE"/>
  <path fill-opacity="0.019607844" transform="matrix(0.328125 0 0 0.328125 -0.00012207 -0.00012207)" d="M1406.89 1165.32C1405.02 1134.29 1407.12 1102.66 1407.16 1071.57C1407.23 1022.86 1406.01 974.152 1406.6 925.431C1408.14 922.747 1408.46 922.857 1411.38 921.693L1412.43 1043.88C1412.69 1076.78 1416.69 1135.97 1406.89 1165.32Z" fill="#FEFEFE"/>
  <path fill-opacity="0.011764706" transform="matrix(0.328125 0 0 0.328125 -0.00012207 -0.00012207)" d="M1694 750.848L1697.19 751.746C1698.43 763.287 1697.53 775.495 1698.1 787.163C1699.15 808.676 1700.72 830.106 1701.13 851.649C1701.73 882.841 1701.02 914.246 1702.25 945.392C1702.35 947.872 1701.98 949.881 1703.72 951.708L1708.8 952.151C1704.61 955.549 1700.26 958.743 1695.94 961.975Q1694 856.42 1694 750.848Z" fill="#FEFEFE"/>
  <path fill-opacity="0.0078431377" d="M2632.03 1223.82C2638.72 1229.92 2640.68 1283.79 2641.2 1295.75C2641.45 1301.59 2641.73 1307.51 2641.09 1313.34C2639.61 1314.82 2639.69 1314.42 2637.67 1314.42C2635.29 1314.43 2633.09 1314.25 2630.74 1313.94C2633.21 1312.97 2633.66 1313.02 2635.04 1310.81C2634.28 1295.97 2635.4 1232.37 2632.03 1223.82Z" transform="matrix(0.328125 0 0 0.328125 -0.00012207 -0.00012207)" fill="#FEFEFE"/>
  <path fill-opacity="0.015686275" transform="matrix(0.328125 0 0 0.328125 -0.00012207 -0.00012207)" d="M3092.76 1066.15C3098.3 1071.25 3100.37 1101.94 3100.7 1110.22C3100.85 1113.85 3101.24 1117.38 3100.05 1120.88C3105.71 1122.36 3117.54 1122.78 3121.66 1124.91C3121.25 1125.02 3120.85 1125.16 3120.43 1125.24C3115.02 1126.28 3102.39 1127.49 3098.08 1123.77C3089.65 1116.49 3095.29 1079.81 3093.12 1067.96C3093.01 1067.35 3092.88 1066.75 3092.76 1066.15Z" fill="#FEFEFE"/>
  <path fill-opacity="0.011764706" transform="matrix(0.328125 0 0 0.328125 -0.00012207 -0.00012207)" d="M1093.35 1085.78C1095.37 1086.28 1099.24 1086.44 1099.99 1088.62C1102.49 1095.94 1102.92 1136.9 1098.51 1142.72L1094.32 1144.35C1097.32 1127.36 1096.71 1102.57 1093.35 1085.78Z" style="fill: rgb(138, 73, 73);"/>
  <path fill-opacity="0.011764706" transform="matrix(0.328125 0 0 0.328125 -0.00012207 -0.00012207)" d="M2158.89 1273.61C2159.45 1273.83 2160.02 1274.02 2160.57 1274.26C2164.36 1275.96 2169.52 1278.92 2170.77 1282.98L2166.59 1283.72C2162.49 1290.97 2169.59 1314.17 2160.63 1315.49C2158.93 1315.75 2156.53 1315.22 2154.8 1315.01L2157.77 1313.35C2161.06 1305.96 2160.19 1282.07 2158.89 1273.61Z" fill="#FEFEFE"/>
  <path d="M 706.976 423.102 C 706.717 426.872 707.399 431.18 706.55 434.829 C 705.857 435.577 704.587 435.58 703.636 435.679 C 697.142 436.371 690.199 435.902 683.656 435.915 C 679.758 435.925 675.345 436.371 671.519 435.889 C 670.676 435.78 670.147 435.475 669.494 434.95 C 668.044 432.233 669.596 344.578 669.596 332.798 L 669.097 250.919 C 669.898 249.993 671.457 249.93 672.595 249.832 C 676.703 249.48 681.012 249.867 685.146 249.834 C 691.321 249.784 698.038 249.171 704.164 249.836 C 705.001 249.927 705.411 250.179 706.038 250.714 C 706.038 273.808 706.25 296.9 706.674 319.99 C 708.092 318.929 709.519 317.881 710.894 316.766 C 720.042 307.937 734.132 304.177 746.571 304.352 C 747.081 304.362 747.59 304.378 748.1 304.4 C 748.61 304.422 749.118 304.451 749.626 304.485 C 750.135 304.52 750.644 304.561 751.152 304.608 C 751.659 304.655 752.165 304.708 752.671 304.768 C 753.178 304.827 753.685 304.893 754.19 304.965 C 754.693 305.037 755.196 305.115 755.699 305.199 C 756.202 305.283 756.705 305.374 757.205 305.47 C 757.706 305.567 758.205 305.67 758.702 305.779 C 759.2 305.887 759.698 306.002 760.195 306.123 C 760.689 306.244 761.182 306.371 761.675 306.504 C 762.167 306.638 762.657 306.777 763.145 306.922 C 763.635 307.067 764.121 307.218 764.605 307.375 C 765.09 307.532 765.574 307.695 766.055 307.864 C 766.536 308.033 767.015 308.208 767.492 308.389 C 767.969 308.569 768.444 308.756 768.916 308.948 C 769.389 309.141 769.858 309.339 770.324 309.542 C 770.792 309.747 771.257 309.956 771.718 310.171 C 772.18 310.387 772.639 310.608 773.097 310.834 C 773.554 311.061 774.008 311.293 774.458 311.53 C 774.909 311.768 775.357 312.011 775.804 312.26 C 776.248 312.508 776.69 312.762 777.129 313.022 C 777.569 313.282 778.004 313.546 778.435 313.817 C 778.868 314.087 779.297 314.362 779.721 314.643 C 780.148 314.923 780.57 315.209 780.988 315.501 C 781.408 315.792 781.824 316.088 782.235 316.389 C 782.646 316.69 783.053 316.997 783.455 317.308 C 783.86 317.619 784.26 317.935 784.656 318.256 C 785.052 318.577 785.444 318.903 785.831 319.234 C 786.22 319.564 786.604 319.9 786.983 320.24 C 787.363 320.58 787.74 320.925 788.112 321.274 C 788.483 321.623 788.85 321.977 789.211 322.335 C 789.574 322.694 789.933 323.056 790.287 323.423 C 803.609 337.218 809.669 354.395 809.269 373.44 C 808.905 390.827 800.324 409.422 787.862 421.454 C 777.674 431.288 763.528 437.989 749.255 438.543 C 748.301 438.633 747.345 438.694 746.387 438.727 C 745.429 438.762 744.471 438.768 743.513 438.747 C 742.552 438.725 741.595 438.677 740.642 438.602 C 739.686 438.526 738.733 438.423 737.784 438.294 C 736.832 438.163 735.886 438.005 734.945 437.821 C 734.005 437.635 733.071 437.423 732.143 437.185 C 731.214 436.948 730.293 436.685 729.38 436.394 C 728.466 436.103 727.562 435.786 726.667 435.442 C 719.199 433.851 713.214 426.987 706.976 423.102 Z M 708.147 357.509 C 708.029 357.776 707.915 358.045 707.803 358.317 C 707.691 358.588 707.584 358.86 707.481 359.134 C 707.376 359.407 707.276 359.682 707.18 359.957 C 707.083 360.233 706.99 360.51 706.901 360.787 C 706.811 361.067 706.725 361.347 706.641 361.627 C 706.56 361.907 706.483 362.19 706.408 362.474 C 706.334 362.756 706.263 363.039 706.195 363.324 C 706.127 363.608 706.064 363.894 706.005 364.18 C 705.946 364.467 705.89 364.754 705.837 365.043 C 705.785 365.332 705.737 365.621 705.693 365.909 C 705.649 366.198 705.609 366.488 705.572 366.779 C 705.537 367.068 705.504 367.358 705.473 367.648 C 705.445 367.939 705.42 368.231 705.398 368.525 C 705.378 368.815 705.362 369.108 705.349 369.401 C 705.333 369.692 705.323 369.984 705.319 370.277 C 705.312 370.57 705.31 370.863 705.312 371.156 C 705.315 371.447 705.32 371.739 705.329 372.032 C 705.34 372.325 705.354 372.617 705.372 372.908 C 705.389 373.201 705.41 373.493 705.434 373.784 C 705.46 374.075 705.49 374.366 705.522 374.657 C 705.555 374.948 705.591 375.238 705.631 375.527 C 705.672 375.818 705.717 376.108 705.765 376.396 C 705.813 376.685 705.865 376.973 705.92 377.259 C 705.976 377.546 706.037 377.832 706.1 378.119 C 706.163 378.403 706.23 378.688 706.3 378.972 C 706.372 379.256 706.447 379.54 706.523 379.822 C 706.602 380.102 706.684 380.382 706.769 380.662 C 706.857 380.942 706.947 381.221 707.038 381.499 C 707.132 381.776 707.23 382.052 707.33 382.325 C 707.431 382.601 707.535 382.875 707.642 383.146 C 707.749 383.417 707.861 383.687 707.977 383.956 C 708.091 384.225 708.209 384.493 708.331 384.76 C 708.528 385.187 708.733 385.609 708.945 386.027 C 709.159 386.447 709.382 386.861 709.614 387.27 C 709.844 387.679 710.083 388.083 710.333 388.481 C 710.582 388.879 710.839 389.272 711.104 389.659 C 711.369 390.048 711.642 390.431 711.924 390.808 C 712.204 391.184 712.493 391.553 712.79 391.917 C 713.088 392.28 713.393 392.637 713.706 392.99 C 714.019 393.34 714.338 393.683 714.664 394.02 C 714.992 394.359 715.326 394.689 715.665 395.011 C 716.006 395.335 716.354 395.651 716.708 395.959 C 717.063 396.268 717.424 396.568 717.791 396.861 C 718.159 397.155 718.532 397.44 718.91 397.718 C 719.291 397.996 719.676 398.265 720.065 398.525 C 720.457 398.785 720.854 399.038 721.256 399.283 C 721.656 399.526 722.062 399.761 722.473 399.988 C 722.885 400.216 723.301 400.434 723.724 400.641 C 724.144 400.851 724.568 401.052 724.997 401.242 C 725.425 401.432 725.859 401.614 726.296 401.787 C 726.734 401.959 727.174 402.123 727.618 402.279 C 728.062 402.432 728.509 402.576 728.957 402.712 C 729.408 402.845 729.861 402.97 730.316 403.086 C 730.771 403.202 731.229 403.308 731.69 403.404 C 732.15 403.5 732.611 403.587 733.075 403.663 C 733.539 403.74 734.004 403.807 734.47 403.864 C 734.936 403.92 735.403 403.968 735.871 404.005 C 736.339 404.042 736.808 404.069 737.278 404.087 C 737.747 404.104 738.216 404.112 738.686 404.11 C 739.156 404.108 739.626 404.094 740.094 404.07 C 740.564 404.048 741.033 404.016 741.501 403.972 C 741.97 403.93 742.437 403.878 742.902 403.814 C 743.366 403.753 743.83 403.681 744.294 403.598 C 744.755 403.517 745.216 403.425 745.675 403.322 C 746.135 403.219 746.591 403.108 747.043 402.988 C 747.498 402.867 747.95 402.737 748.399 402.597 C 748.847 402.455 749.292 402.305 749.734 402.148 C 750.176 401.988 750.615 401.819 751.05 401.642 C 751.483 401.463 751.913 401.276 752.339 401.081 C 752.768 400.884 753.191 400.679 753.609 400.464 C 754.027 400.25 754.44 400.027 754.85 399.795 C 755.259 399.563 755.662 399.323 756.06 399.076 C 756.458 398.827 756.851 398.57 757.238 398.305 C 757.625 398.038 758.007 397.764 758.383 397.482 C 758.76 397.202 759.129 396.913 759.492 396.615 C 759.858 396.318 760.215 396.013 760.565 395.7 C 760.915 395.387 761.259 395.067 761.596 394.738 C 761.933 394.413 762.263 394.079 762.587 393.738 C 762.91 393.396 763.227 393.049 763.535 392.694 C 763.841 392.34 764.141 391.979 764.434 391.611 C 764.727 391.244 765.013 390.87 765.29 390.489 C 765.566 390.111 765.834 389.726 766.094 389.334 C 766.357 388.943 766.61 388.547 766.852 388.146 C 767.095 387.744 767.33 387.337 767.558 386.926 C 767.783 386.515 768.001 386.098 768.211 385.676 C 768.419 385.256 768.619 384.831 768.811 384.403 C 769.002 383.972 769.182 383.538 769.353 383.103 C 769.525 382.666 769.688 382.225 769.842 381.781 C 769.997 381.337 770.141 380.889 770.275 380.439 C 770.41 379.988 770.536 379.535 770.652 379.08 C 770.766 378.625 770.871 378.168 770.967 377.709 C 771.063 377.247 771.15 376.786 771.226 376.324 C 771.303 375.86 771.37 375.394 771.426 374.926 C 771.483 374.46 771.529 373.993 771.564 373.525 C 771.601 373.057 771.629 372.588 771.646 372.118 C 771.662 371.649 771.668 371.18 771.666 370.71 C 771.664 370.24 771.651 369.77 771.627 369.302 C 771.602 368.832 771.57 368.363 771.528 367.895 C 771.484 367.426 771.431 366.96 771.367 366.497 C 771.306 366.031 771.234 365.566 771.151 365.102 C 771.068 364.641 770.976 364.18 770.875 363.721 C 770.772 363.264 770.66 362.808 770.537 362.353 C 770.417 361.9 770.287 361.449 770.147 361.001 C 770.005 360.552 769.854 360.107 769.694 359.665 C 769.534 359.223 769.366 358.785 769.189 358.349 C 769.009 357.914 768.822 357.483 768.627 357.057 C 768.431 356.63 768.225 356.208 768.011 355.79 C 767.796 355.372 767.573 354.959 767.341 354.55 C 767.109 354.141 766.869 353.737 766.619 353.339 C 766.37 352.941 766.112 352.548 765.845 352.161 C 765.58 351.774 765.307 351.392 765.025 351.016 C 764.742 350.64 764.453 350.27 764.155 349.907 C 763.858 349.544 763.552 349.187 763.24 348.837 C 762.927 348.487 762.606 348.144 762.278 347.807 C 761.95 347.47 761.615 347.14 761.274 346.816 C 760.933 346.494 760.585 346.179 760.231 345.871 C 759.876 345.562 759.515 345.263 759.148 344.972 C 758.78 344.679 758.406 344.393 758.026 344.115 C 757.645 343.84 757.26 343.572 756.871 343.311 C 756.479 343.051 756.082 342.8 755.68 342.557 C 755.277 342.312 754.87 342.077 754.459 341.851 C 754.048 341.626 753.631 341.408 753.209 341.198 C 752.789 340.99 752.365 340.791 751.936 340.601 C 751.505 340.411 751.071 340.229 750.633 340.056 C 750.196 339.886 749.755 339.724 749.311 339.571 C 748.867 339.418 748.42 339.273 747.972 339.138 C 747.521 339.004 747.069 338.88 746.614 338.764 C 746.156 338.65 745.698 338.545 745.239 338.449 C 744.779 338.352 744.318 338.267 743.854 338.193 C 743.39 338.116 742.925 338.049 742.46 337.993 C 741.991 337.936 741.523 337.89 741.055 337.855 C 740.587 337.818 740.119 337.791 739.651 337.776 C 739.18 337.758 738.71 337.752 738.24 337.756 C 737.77 337.758 737.3 337.772 736.832 337.796 C 736.362 337.82 735.894 337.854 735.428 337.897 C 734.96 337.939 734.493 337.991 734.027 338.055 C 733.561 338.118 733.097 338.192 732.635 338.275 C 732.172 338.358 731.711 338.451 731.254 338.554 C 730.795 338.656 730.339 338.768 729.886 338.888 C 729.431 339.011 728.979 339.143 728.531 339.285 C 728.082 339.425 727.638 339.575 727.198 339.735 C 726.757 339.895 726.318 340.064 725.883 340.243 C 725.447 340.421 725.016 340.608 724.59 340.805 C 724.163 341.001 723.741 341.207 723.323 341.421 C 722.905 341.638 722.493 341.862 722.086 342.094 C 721.677 342.326 721.274 342.567 720.875 342.816 C 720.477 343.065 720.085 343.323 719.697 343.59 C 719.31 343.855 718.929 344.128 718.552 344.411 C 718.178 344.693 717.809 344.984 717.443 345.283 C 717.08 345.581 716.724 345.886 716.374 346.199 C 716.024 346.512 715.68 346.832 715.343 347.16 C 715.006 347.488 714.677 347.823 714.356 348.164 C 714.034 348.506 713.719 348.855 713.411 349.211 C 713.102 349.565 712.802 349.926 712.512 350.294 C 712.218 350.661 711.934 351.035 711.658 351.416 C 711.383 351.797 711.115 352.182 710.855 352.571 C 710.594 352.963 710.343 353.36 710.1 353.762 C 709.857 354.165 709.622 354.572 709.394 354.983 C 709.169 355.396 708.952 355.813 708.745 356.233 C 708.537 356.655 708.338 357.081 708.147 357.509 Z" style="fill: rgb(58, 141, 255);"/>
</svg>